<svg version="1.1" id="Layer_1" xmlns="http://www.w3.org/2000/svg" xmlns:xlink="http://www.w3.org/1999/xlink" x="0px" y="0px"
	 width="100%" viewBox="0 0 180 180" enable-background="new 0 0 180 180" xml:space="preserve">
<path fill="none" opacity="1.000000" stroke="none" 
	d="
M96.000000,181.000000 
	C64.021889,181.000000 32.543777,181.000000 1.032833,181.000000 
	C1.032833,121.063599 1.032833,61.127171 1.032833,1.095371 
	C60.894588,1.095371 120.789383,1.095371 180.842087,1.095371 
	C180.842087,60.999672 180.842087,120.999794 180.842087,181.000000 
	C152.794159,181.000000 124.647079,181.000000 96.000000,181.000000 
M121.328796,171.923203 
	C138.659622,165.236511 152.821030,154.493134 163.015839,138.867661 
	C176.552628,118.120026 180.305038,95.484573 174.958862,71.438049 
	C170.292648,50.449848 159.020844,33.594494 141.520004,21.071510 
	C130.056168,12.868406 117.475510,7.605655 103.270638,5.803735 
	C89.098763,4.006001 75.277985,4.728269 61.961617,9.643867 
	C42.959335,16.658361 27.775610,28.528938 17.204807,46.190033 
	C3.322198,69.384300 0.997338,94.037239 9.331697,119.135216 
	C17.106981,142.549591 32.859592,159.905579 55.791569,169.890564 
	C77.003387,179.126556 98.680649,179.742447 121.328796,171.923203 
z"/>
<path fill="#84C301" opacity="1.000000" stroke="none" 
	d="
M120.941246,172.010040 
	C98.680649,179.742447 77.003387,179.126556 55.791569,169.890564 
	C32.859592,159.905579 17.106981,142.549591 9.331697,119.135216 
	C0.997338,94.037239 3.322198,69.384300 17.204807,46.190033 
	C27.775610,28.528938 42.959335,16.658361 61.961617,9.643867 
	C75.277985,4.728269 89.098763,4.006001 103.270638,5.803735 
	C117.475510,7.605655 130.056168,12.868406 141.520004,21.071510 
	C159.020844,33.594494 170.292648,50.449848 174.958862,71.438049 
	C180.305038,95.484573 176.552628,118.120026 163.015839,138.867661 
	C152.821030,154.493134 138.659622,165.236511 120.941246,172.010040 
M70.915604,72.755295 
	C66.293533,69.299583 61.671467,65.843880 56.997700,62.349518 
	C31.647181,83.280647 38.779209,129.790314 69.598022,142.263214 
	C70.853310,142.771240 73.652985,141.590225 74.630104,140.336472 
	C87.294113,124.087166 89.663536,105.711288 85.548515,86.004692 
	C84.305939,80.054062 82.201210,75.317055 75.220398,74.681480 
	C73.974968,74.568085 72.805870,73.616211 70.915604,72.755295 
M140.115128,91.419449 
	C138.648071,79.775009 133.601074,70.004745 125.132889,61.969036 
	C121.252602,65.143509 117.943916,68.523621 114.019073,70.875496 
	C109.940994,73.319199 105.219872,74.669136 100.888641,76.726212 
	C99.869186,77.210388 98.920158,78.493805 98.556129,79.610764 
	C91.516090,101.211784 93.560219,121.523460 107.132370,140.269592 
	C109.266861,143.217789 111.141983,143.360825 114.177864,141.763031 
	C132.057175,132.353134 142.426041,112.802574 140.115128,91.419449 
M101.183281,44.682518 
	C99.438499,45.995529 97.744843,48.363335 95.940666,48.450760 
	C84.027824,49.028049 84.019730,48.868565 76.672401,38.978638 
	C76.077591,38.177986 75.559967,37.308018 74.889000,36.578262 
	C73.203728,34.745342 71.875244,31.330006 68.634712,33.899113 
	C65.822166,36.128914 68.089729,38.371426 69.490753,40.361080 
	C71.746307,43.564301 74.085716,46.708488 76.471718,49.990444 
	C72.300148,52.050426 68.686165,53.835068 64.932861,55.688507 
	C78.967697,72.482590 106.695892,72.197113 116.810776,55.415096 
	C113.143257,53.639427 109.505333,51.878090 105.571747,49.973606 
	C108.465187,46.010265 111.336403,42.543629 113.592041,38.714386 
	C114.304031,37.505688 113.368301,35.326397 113.186676,33.591309 
	C111.618050,34.034431 109.522797,33.992424 108.581917,35.013813 
	C106.005173,37.811020 103.914116,41.055637 101.183281,44.682518 
z"/>
<path fill="#FDFDFC" opacity="1.000000" stroke="none" 
	d="
M71.258568,72.903397 
	C72.805870,73.616211 73.974968,74.568085 75.220398,74.681480 
	C82.201210,75.317055 84.305939,80.054062 85.548515,86.004692 
	C89.663536,105.711288 87.294113,124.087166 74.630104,140.336472 
	C73.652985,141.590225 70.853310,142.771240 69.598022,142.263214 
	C38.779209,129.790314 31.647181,83.280647 56.997700,62.349518 
	C61.671467,65.843880 66.293533,69.299583 71.258568,72.903397 
z"/>
<path fill="#FDFEFC" opacity="1.000000" stroke="none" 
	d="
M140.168762,91.852707 
	C142.426041,112.802574 132.057175,132.353134 114.177864,141.763031 
	C111.141983,143.360825 109.266861,143.217789 107.132370,140.269592 
	C93.560219,121.523460 91.516090,101.211784 98.556129,79.610764 
	C98.920158,78.493805 99.869186,77.210388 100.888641,76.726212 
	C105.219872,74.669136 109.940994,73.319199 114.019073,70.875496 
	C117.943916,68.523621 121.252602,65.143509 125.132889,61.969036 
	C133.601074,70.004745 138.648071,79.775009 140.168762,91.852707 
z"/>
<path fill="#FBFDF8" opacity="1.000000" stroke="none" 
	d="
M101.407028,44.402817 
	C103.914116,41.055637 106.005173,37.811020 108.581917,35.013813 
	C109.522797,33.992424 111.618050,34.034431 113.186676,33.591309 
	C113.368301,35.326397 114.304031,37.505688 113.592041,38.714386 
	C111.336403,42.543629 108.465187,46.010265 105.571747,49.973606 
	C109.505333,51.878090 113.143257,53.639427 116.810776,55.415096 
	C106.695892,72.197113 78.967697,72.482590 64.932861,55.688507 
	C68.686165,53.835068 72.300148,52.050426 76.471718,49.990444 
	C74.085716,46.708488 71.746307,43.564301 69.490753,40.361080 
	C68.089729,38.371426 65.822166,36.128914 68.634712,33.899113 
	C71.875244,31.330006 73.203728,34.745342 74.889000,36.578262 
	C75.559967,37.308018 76.077591,38.177986 76.672401,38.978638 
	C84.019730,48.868565 84.027824,49.028049 95.940666,48.450760 
	C97.744843,48.363335 99.438499,45.995529 101.407028,44.402817 
z"/>
</svg>