<svg version="1.1" id="Layer_1" xmlns="http://www.w3.org/2000/svg" xmlns:xlink="http://www.w3.org/1999/xlink" x="0px" y="0px"
	 width="100%" viewBox="0 0 180 180" enable-background="new 0 0 180 180" xml:space="preserve">
<path fill="none" opacity="1.000000" stroke="none" 
	d="
M97.000000,181.000000 
	C64.688789,181.000000 32.877575,181.000000 1.033180,181.000000 
	C1.033180,121.063828 1.033180,61.127632 1.033180,1.095719 
	C60.894360,1.095719 120.788925,1.095719 180.841736,1.095719 
	C180.841736,60.999668 180.841736,120.999794 180.841736,181.000000 
	C153.127960,181.000000 125.313980,181.000000 97.000000,181.000000 
M119.889839,172.555145 
	C134.705750,166.686508 147.709625,158.418747 157.849319,145.754135 
	C175.111420,124.193535 180.570984,99.759903 175.391983,73.090477 
	C171.667389,53.910435 161.943344,37.863625 146.770081,25.167402 
	C137.228790,17.183727 126.620132,11.417511 114.737534,8.023370 
	C102.651520,4.571121 90.374435,4.157108 77.909241,5.920105 
	C54.781197,9.191188 36.153687,20.399807 22.249214,38.712513 
	C7.382349,58.292721 2.039721,80.746925 5.989423,105.172119 
	C9.974232,129.814438 22.512152,149.208389 43.184437,162.914490 
	C66.724480,178.521957 92.361618,180.786682 119.889839,172.555145 
z"/>
<path fill="#5B5566" opacity="1.000000" stroke="none" 
	d="
M119.525665,172.716492 
	C92.361618,180.786682 66.724480,178.521957 43.184437,162.914490 
	C22.512152,149.208389 9.974232,129.814438 5.989423,105.172119 
	C2.039721,80.746925 7.382349,58.292721 22.249214,38.712513 
	C36.153687,20.399807 54.781197,9.191188 77.909241,5.920105 
	C90.374435,4.157108 102.651520,4.571121 114.737534,8.023370 
	C126.620132,11.417511 137.228790,17.183727 146.770081,25.167402 
	C161.943344,37.863625 171.667389,53.910435 175.391983,73.090477 
	C180.570984,99.759903 175.111420,124.193535 157.849319,145.754135 
	C147.709625,158.418747 134.705750,166.686508 119.525665,172.716492 
M68.117653,41.558052 
	C46.559105,52.183285 34.950783,72.315224 36.779015,95.907639 
	C39.194267,127.075363 67.630943,149.275665 99.574692,144.931732 
	C129.501633,140.862061 150.890274,110.154427 144.560211,80.346092 
	C137.215057,45.757557 102.477089,27.805876 68.117653,41.558052 
z"/>
<path fill="#FDFDFD" opacity="1.000000" stroke="none" 
	d="
M68.449844,41.371971 
	C102.477089,27.805876 137.215057,45.757557 144.560211,80.346092 
	C150.890274,110.154427 129.501633,140.862061 99.574692,144.931732 
	C67.630943,149.275665 39.194267,127.075363 36.779015,95.907639 
	C34.950783,72.315224 46.559105,52.183285 68.449844,41.371971 
M80.491470,48.814240 
	C81.091072,49.383327 81.658592,49.991329 82.294884,50.515907 
	C109.241653,72.731476 108.340424,111.921898 80.402199,132.656998 
	C79.697083,133.180328 79.015770,133.735718 77.991501,134.535172 
	C92.600082,137.499771 110.518669,131.844162 121.647316,121.094414 
	C140.061005,103.307648 138.906891,75.934906 118.980339,59.875706 
	C107.865555,50.918076 95.085793,47.136162 80.491470,48.814240 
z"/>
<path fill="#5D5668" opacity="1.000000" stroke="none" 
	d="
M80.678726,48.486046 
	C95.085793,47.136162 107.865555,50.918076 118.980339,59.875706 
	C138.906891,75.934906 140.061005,103.307648 121.647316,121.094414 
	C110.518669,131.844162 92.600082,137.499771 77.991501,134.535172 
	C79.015770,133.735718 79.697083,133.180328 80.402199,132.656998 
	C108.340424,111.921898 109.241653,72.731476 82.294884,50.515907 
	C81.658592,49.991329 81.091072,49.383327 80.678726,48.486046 
z"/>
</svg>