<svg version="1.1" id="Layer_1" xmlns="http://www.w3.org/2000/svg" xmlns:xlink="http://www.w3.org/1999/xlink" x="0px" y="0px"
	 width="100%" viewBox="0 0 180 180" enable-background="new 0 0 180 180" xml:space="preserve">
<path fill="none" opacity="1.000000" stroke="none" 
	d="
M95.000000,181.000000 
	C63.333336,181.000000 32.166672,181.000000 1.000004,181.000000 
	C1.000003,121.000008 1.000003,61.000011 1.000001,1.000012 
	C60.999989,1.000008 120.999977,1.000008 180.999969,1.000004 
	C180.999985,60.999989 180.999985,120.999977 181.000000,180.999985 
	C152.500000,181.000000 124.000000,181.000000 95.000000,181.000000 
M172.889206,119.203957 
	C177.159775,105.294052 178.324921,91.157349 176.009613,76.761703 
	C172.373627,54.154530 161.245010,35.897423 143.134735,22.175522 
	C131.404419,13.287623 118.199471,7.601930 103.240303,5.783039 
	C89.056404,4.058412 75.266426,4.800970 61.922256,9.655375 
	C42.457901,16.736210 27.029633,29.078159 16.545210,47.091621 
	C5.227508,66.536758 2.134089,87.452599 6.780692,109.389816 
	C10.890774,128.794037 20.612297,144.859039 36.005650,157.605362 
	C49.318073,168.628601 64.563667,175.177292 81.515915,176.794556 
	C95.652100,178.143143 109.678085,176.732254 123.205353,171.141418 
	C147.243500,161.206436 163.349823,143.989120 172.889206,119.203957 
z"/>
<path fill="#0170C9" opacity="1.000000" stroke="none" 
	d="
M172.707321,119.562622 
	C163.349823,143.989120 147.243500,161.206436 123.205353,171.141418 
	C109.678085,176.732254 95.652100,178.143143 81.515915,176.794556 
	C64.563667,175.177292 49.318073,168.628601 36.005650,157.605362 
	C20.612297,144.859039 10.890774,128.794037 6.780692,109.389816 
	C2.134089,87.452599 5.227508,66.536758 16.545210,47.091621 
	C27.029633,29.078159 42.457901,16.736210 61.922256,9.655375 
	C75.266426,4.800970 89.056404,4.058412 103.240303,5.783039 
	C118.199471,7.601930 131.404419,13.287623 143.134735,22.175522 
	C161.245010,35.897423 172.373627,54.154530 176.009613,76.761703 
	C178.324921,91.157349 177.159775,105.294052 172.707321,119.562622 
M138.808990,71.774864 
	C128.263580,55.487064 112.981750,47.548691 93.207031,46.715618 
	C94.642311,43.599510 95.869286,41.111004 96.942062,38.557713 
	C98.034798,35.956909 99.084602,33.327526 99.951431,30.645443 
	C100.754280,28.161303 101.290382,25.590952 101.635597,24.253323 
	C91.218155,33.554405 80.977486,44.147255 69.263985,52.730034 
	C58.509632,60.610012 49.729549,69.354019 44.289440,81.580185 
	C41.986084,86.756767 38.627525,91.463829 35.281853,97.181969 
	C52.444939,93.100685 68.565125,89.192719 84.723167,85.448105 
	C98.311874,82.298943 98.331383,82.383110 99.723427,68.095947 
	C100.448112,70.874435 101.362801,72.496201 101.164734,73.968239 
	C100.517189,78.780838 103.081078,81.108749 106.625755,83.867798 
	C114.823196,90.248398 117.901382,99.042778 115.122559,109.196663 
	C112.332176,119.392815 105.716568,125.822968 94.923180,127.309013 
	C92.237679,127.678749 89.526245,127.860100 86.229172,128.187347 
	C91.297714,136.458237 97.572693,142.423645 105.105759,147.212234 
	C108.044266,149.080185 110.742920,149.198517 113.996078,147.863586 
	C143.743942,135.656479 155.294861,101.159584 138.808990,71.774864 
M41.203018,119.249077 
	C51.343529,138.096573 66.897202,148.542313 89.467796,150.021423 
	C72.097488,135.477295 64.278137,119.256950 76.169548,98.978676 
	C63.360306,101.942085 50.261539,104.972473 36.846676,108.075989 
	C38.172585,111.472343 39.553818,115.010406 41.203018,119.249077 
z"/>
<path fill="#FBFCFD" opacity="1.000000" stroke="none" 
	d="
M138.982285,72.096436 
	C155.294861,101.159584 143.743942,135.656479 113.996078,147.863586 
	C110.742920,149.198517 108.044266,149.080185 105.105759,147.212234 
	C97.572693,142.423645 91.297714,136.458237 86.229172,128.187347 
	C89.526245,127.860100 92.237679,127.678749 94.923180,127.309013 
	C105.716568,125.822968 112.332176,119.392815 115.122559,109.196663 
	C117.901382,99.042778 114.823196,90.248398 106.625755,83.867798 
	C103.081078,81.108749 100.517189,78.780838 101.164734,73.968239 
	C101.362801,72.496201 100.448112,70.874435 99.723427,68.095947 
	C98.331383,82.383110 98.311874,82.298943 84.723167,85.448105 
	C68.565125,89.192719 52.444939,93.100685 35.281853,97.181969 
	C38.627525,91.463829 41.986084,86.756767 44.289440,81.580185 
	C49.729549,69.354019 58.509632,60.610012 69.263985,52.730034 
	C80.977486,44.147255 91.218155,33.554405 101.635597,24.253323 
	C101.290382,25.590952 100.754280,28.161303 99.951431,30.645443 
	C99.084602,33.327526 98.034798,35.956909 96.942062,38.557713 
	C95.869286,41.111004 94.642311,43.599510 93.207031,46.715618 
	C112.981750,47.548691 128.263580,55.487064 138.982285,72.096436 
M68.614998,76.141640 
	C72.795906,72.950722 73.814018,68.880295 71.872253,62.347656 
	C65.895088,68.310638 60.695946,73.497452 55.496803,78.684258 
	C55.918583,79.349785 56.340359,80.015312 56.762135,80.680832 
	C60.516972,79.320183 64.271812,77.959526 68.614998,76.141640 
z"/>
<path fill="#F9FBFD" opacity="1.000000" stroke="none" 
	d="
M41.069035,118.898773 
	C39.553818,115.010406 38.172585,111.472343 36.846676,108.075989 
	C50.261539,104.972473 63.360306,101.942085 76.169548,98.978676 
	C64.278137,119.256950 72.097488,135.477295 89.467796,150.021423 
	C66.897202,148.542313 51.343529,138.096573 41.069035,118.898773 
z"/>
<path fill="#0E77CC" opacity="1.000000" stroke="none" 
	d="
M68.320824,76.370255 
	C64.271812,77.959526 60.516972,79.320183 56.762135,80.680832 
	C56.340359,80.015312 55.918583,79.349785 55.496803,78.684258 
	C60.695946,73.497452 65.895088,68.310638 71.872253,62.347656 
	C73.814018,68.880295 72.795906,72.950722 68.320824,76.370255 
z"/>
</svg>