<svg version="1.1" id="Layer_1" xmlns="http://www.w3.org/2000/svg" xmlns:xlink="http://www.w3.org/1999/xlink" x="0px" y="0px"
	 width="100%" viewBox="0 0 180 180" enable-background="new 0 0 180 180" xml:space="preserve">
<path fill="none" opacity="1.000000" stroke="none" 
	d="
M100.000000,181.000000 
	C66.666672,181.000000 33.833336,181.000000 1.000004,181.000000 
	C1.000003,121.000008 1.000003,61.000011 1.000001,1.000012 
	C60.999989,1.000008 120.999977,1.000008 180.999969,1.000004 
	C180.999985,60.999989 180.999985,120.999977 181.000000,180.999985 
	C154.166672,181.000000 127.333336,181.000000 100.000000,181.000000 
M123.457336,171.001389 
	C139.991104,164.371658 153.203354,153.675552 163.035828,138.795074 
	C177.086075,117.531456 180.396759,94.205948 174.768326,69.852928 
	C170.311646,50.569897 159.656616,34.462513 143.810242,22.533009 
	C131.948410,13.603164 118.624435,7.643901 103.437241,5.808254 
	C89.145836,4.080877 75.267899,4.741695 61.843861,9.719187 
	C42.963505,16.719824 27.994892,28.538136 17.314859,46.005077 
	C5.419090,65.460327 2.201280,86.450050 6.360469,108.224014 
	C10.107128,127.838318 20.064590,144.401443 35.789928,157.434998 
	C54.952435,173.317352 77.036034,178.882462 101.210754,176.782440 
	C108.473366,176.151550 115.520332,173.038116 123.457336,171.001389 
z"/>
<path fill="#FBD101" opacity="1.000000" stroke="none" 
	d="
M123.061714,171.031677 
	C115.520332,173.038116 108.473366,176.151550 101.210754,176.782440 
	C77.036034,178.882462 54.952435,173.317352 35.789928,157.434998 
	C20.064590,144.401443 10.107128,127.838318 6.360469,108.224014 
	C2.201280,86.450050 5.419090,65.460327 17.314859,46.005077 
	C27.994892,28.538136 42.963505,16.719824 61.843861,9.719187 
	C75.267899,4.741695 89.145836,4.080877 103.437241,5.808254 
	C118.624435,7.643901 131.948410,13.603164 143.810242,22.533009 
	C159.656616,34.462513 170.311646,50.569897 174.768326,69.852928 
	C180.396759,94.205948 177.086075,117.531456 163.035828,138.795074 
	C153.203354,153.675552 139.991104,164.371658 123.061714,171.031677 
M113.284126,51.173702 
	C112.529510,48.795940 111.561211,46.461281 111.070885,44.030216 
	C110.353722,40.474560 108.516342,39.205227 104.857719,39.454865 
	C100.048355,39.783024 95.199684,39.535198 90.367920,39.535160 
	C83.279648,39.535107 76.191376,39.535145 68.370453,39.535145 
	C72.167007,51.046928 75.676933,61.689613 79.396797,72.968857 
	C68.763786,72.968857 58.869736,72.968857 47.901073,72.968857 
	C68.552589,97.463448 88.517487,121.143654 108.482384,144.823853 
	C108.798729,144.664398 109.115067,144.504959 109.431404,144.345505 
	C105.665924,129.316940 101.900436,114.288368 97.958870,98.557007 
	C108.446808,98.557007 118.169350,98.557007 128.626389,98.557007 
	C123.459541,82.522614 118.527367,67.216476 113.284126,51.173702 
z"/>
<path fill="#FFFFFD" opacity="1.000000" stroke="none" 
	d="
M113.439659,51.542023 
	C118.527367,67.216476 123.459541,82.522614 128.626389,98.557007 
	C118.169350,98.557007 108.446808,98.557007 97.958870,98.557007 
	C101.900436,114.288368 105.665924,129.316940 109.431404,144.345505 
	C109.115067,144.504959 108.798729,144.664398 108.482384,144.823853 
	C88.517487,121.143654 68.552589,97.463448 47.901073,72.968857 
	C58.869736,72.968857 68.763786,72.968857 79.396797,72.968857 
	C75.676933,61.689613 72.167007,51.046928 68.370453,39.535145 
	C76.191376,39.535145 83.279648,39.535107 90.367920,39.535160 
	C95.199684,39.535198 100.048355,39.783024 104.857719,39.454865 
	C108.516342,39.205227 110.353722,40.474560 111.070885,44.030216 
	C111.561211,46.461281 112.529510,48.795940 113.439659,51.542023 
z"/>
</svg>