<svg version="1.1" id="Layer_1" xmlns="http://www.w3.org/2000/svg" xmlns:xlink="http://www.w3.org/1999/xlink" x="0px" y="0px"
	 width="100%" viewBox="0 0 180 180" enable-background="new 0 0 180 180" xml:space="preserve">
<path fill="none" opacity="1.000000" stroke="none" 
	d="
M97.000000,181.000000 
	C64.688789,181.000000 32.877575,181.000000 1.066360,181.000000 
	C1.044240,180.855576 1.002738,180.711136 1.002731,180.566711 
	C0.999954,120.774956 1.000000,60.983196 1.000000,1.095719 
	C60.894360,1.095719 120.788925,1.095719 180.841736,1.095719 
	C180.841736,60.999668 180.841736,120.999794 180.841736,181.000000 
	C153.127960,181.000000 125.313980,181.000000 97.000000,181.000000 
M106.362061,6.000666 
	C91.408752,3.682081 76.492203,4.162331 62.320030,9.434570 
	C43.475609,16.444950 28.289413,28.160997 17.495962,45.727695 
	C5.477476,65.288170 2.185699,86.343140 6.340523,108.196091 
	C10.047446,127.693245 19.809910,144.369629 35.620052,157.219727 
	C60.048241,177.074402 87.439659,181.773773 117.159111,173.226700 
	C134.273911,168.304611 148.450302,158.337433 159.362381,144.104370 
	C169.209274,131.260666 175.375366,116.706520 176.847717,100.641830 
	C178.184143,86.060425 176.944992,71.483727 170.909378,57.855354 
	C163.579788,41.305119 152.863068,27.536942 137.123322,17.961006 
	C127.793541,12.284833 117.875450,8.322114 106.362061,6.000666 
z"/>
<path fill="#FB89EB" opacity="1.000000" stroke="none" 
	d="
M106.806381,6.001614 
	C117.875450,8.322114 127.793541,12.284833 137.123322,17.961006 
	C152.863068,27.536942 163.579788,41.305119 170.909378,57.855354 
	C176.944992,71.483727 178.184143,86.060425 176.847717,100.641830 
	C175.375366,116.706520 169.209274,131.260666 159.362381,144.104370 
	C148.450302,158.337433 134.273911,168.304611 117.159111,173.226700 
	C87.439659,181.773773 60.048241,177.074402 35.620052,157.219727 
	C19.809910,144.369629 10.047446,127.693245 6.340523,108.196091 
	C2.185699,86.343140 5.477476,65.288170 17.495962,45.727695 
	C28.289413,28.160997 43.475609,16.444950 62.320030,9.434570 
	C76.492203,4.162331 91.408752,3.682081 106.806381,6.001614 
M54.933403,127.196106 
	C61.028320,125.638901 67.123238,124.081696 73.515305,122.448578 
	C79.184212,132.699280 84.840263,142.926758 90.858093,153.808395 
	C92.166763,151.849991 92.966690,150.824295 93.585594,149.699036 
	C97.759438,142.110382 102.046211,134.577652 105.973480,126.862427 
	C107.711716,123.447624 109.615417,122.205803 113.438042,123.528145 
	C118.242950,125.190254 123.229027,126.328613 128.881531,127.899994 
	C127.277374,122.423325 126.000481,117.653008 124.466789,112.966743 
	C123.374229,109.628349 123.820763,107.483360 127.323318,105.735123 
	C134.769363,102.018585 141.993149,97.854752 149.282669,93.828354 
	C150.631332,93.083405 151.860809,92.122650 153.834167,90.799667 
	C144.385071,85.594292 135.929535,80.625740 127.173653,76.259483 
	C123.462738,74.408981 123.030212,72.345253 124.189522,68.865067 
	C125.845528,63.893845 127.204056,58.823532 128.900436,53.082081 
	C122.981430,54.757545 117.796295,55.914864 112.850258,57.725372 
	C109.021255,59.126991 107.189545,58.076832 105.619263,54.512299 
	C103.812790,50.411575 101.412170,46.570122 99.230202,42.637924 
	C96.694557,38.068333 94.116158,33.522469 91.189568,28.313545 
	C89.760941,30.497471 88.785744,31.802832 88.003624,33.215122 
	C84.049866,40.354492 79.898148,47.400822 76.329208,54.729767 
	C74.527153,58.430359 72.625687,58.855091 68.970757,57.633263 
	C64.123672,56.012894 59.023338,55.150074 53.954468,53.715870 
	C53.869095,53.682350 53.783718,53.648834 53.698345,53.615314 
	C53.788826,53.751678 53.879307,53.888042 53.921616,54.829399 
	C54.393898,56.763615 54.783531,58.722469 55.351746,60.628082 
	C59.345539,74.021996 59.334911,73.976379 47.132278,80.461578 
	C41.028957,83.705246 35.024590,87.135094 28.129154,90.948814 
	C30.428385,92.351036 31.763700,93.237778 33.163574,94.007034 
	C40.605183,98.096352 47.995560,102.287811 55.550106,106.158081 
	C58.362373,107.598824 58.901844,109.090157 57.933727,112.037453 
	C56.331757,116.914421 55.227329,121.954826 53.671192,127.069336 
	C53.819767,127.090225 53.968342,127.111115 54.933403,127.196106 
z"/>
<path fill="#FFFEFF" opacity="1.000000" stroke="none" 
	d="
M54.031830,53.961723 
	C59.023338,55.150074 64.123672,56.012894 68.970757,57.633263 
	C72.625687,58.855091 74.527153,58.430359 76.329208,54.729767 
	C79.898148,47.400822 84.049866,40.354492 88.003624,33.215122 
	C88.785744,31.802832 89.760941,30.497471 91.189568,28.313545 
	C94.116158,33.522469 96.694557,38.068333 99.230202,42.637924 
	C101.412170,46.570122 103.812790,50.411575 105.619263,54.512299 
	C107.189545,58.076832 109.021255,59.126991 112.850258,57.725372 
	C117.796295,55.914864 122.981430,54.757545 128.900436,53.082081 
	C127.204056,58.823532 125.845528,63.893845 124.189522,68.865067 
	C123.030212,72.345253 123.462738,74.408981 127.173653,76.259483 
	C135.929535,80.625740 144.385071,85.594292 153.834167,90.799667 
	C151.860809,92.122650 150.631332,93.083405 149.282669,93.828354 
	C141.993149,97.854752 134.769363,102.018585 127.323318,105.735123 
	C123.820763,107.483360 123.374229,109.628349 124.466789,112.966743 
	C126.000481,117.653008 127.277374,122.423325 128.881531,127.899994 
	C123.229027,126.328613 118.242950,125.190254 113.438042,123.528145 
	C109.615417,122.205803 107.711716,123.447624 105.973480,126.862427 
	C102.046211,134.577652 97.759438,142.110382 93.585594,149.699036 
	C92.966690,150.824295 92.166763,151.849991 90.858093,153.808395 
	C84.840263,142.926758 79.184212,132.699280 73.515305,122.448578 
	C67.123238,124.081696 61.028320,125.638901 54.475658,127.111252 
	C54.017914,127.026390 53.913261,126.926361 53.913261,126.926361 
	C55.227329,121.954826 56.331757,116.914421 57.933727,112.037453 
	C58.901844,109.090157 58.362373,107.598824 55.550106,106.158081 
	C47.995560,102.287811 40.605183,98.096352 33.163574,94.007034 
	C31.763700,93.237778 30.428385,92.351036 28.129154,90.948814 
	C35.024590,87.135094 41.028957,83.705246 47.132278,80.461578 
	C59.334911,73.976379 59.345539,74.021996 55.351746,60.628082 
	C54.783531,58.722469 54.393898,56.763615 53.962189,54.412262 
	C54.002762,53.995129 54.031830,53.961720 54.031830,53.961723 
M75.269188,87.776749 
	C73.503738,88.803123 71.738289,89.829498 69.972839,90.855873 
	C69.875717,91.295311 69.778587,91.734749 69.681465,92.174187 
	C80.592453,95.169807 86.772606,103.000641 91.423988,112.899979 
	C95.305786,102.087151 102.678238,95.468147 112.982979,91.005257 
	C102.029541,87.325165 95.780418,79.559250 91.376442,69.000267 
	C86.508842,76.619537 84.324745,84.764252 75.269188,87.776749 
z"/>
<path fill="#FFFEFF" opacity="1.000000" stroke="none" 
	d="
M53.986275,54.009766 
	C53.879307,53.888042 53.788826,53.751678 53.698345,53.615314 
	C53.783718,53.648834 53.869095,53.682350 53.993149,53.838795 
	C54.031830,53.961720 54.002762,53.995129 53.986275,54.009766 
z"/>
<path fill="#FFFEFF" opacity="1.000000" stroke="none" 
	d="
M54.067413,127.079193 
	C53.968342,127.111115 53.819767,127.090225 53.792229,126.997849 
	C53.913261,126.926361 54.017914,127.026390 54.067413,127.079193 
z"/>
<path fill="#FB8CEB" opacity="1.000000" stroke="none" 
	d="
M75.578026,87.585327 
	C84.324745,84.764252 86.508842,76.619537 91.376442,69.000267 
	C95.780418,79.559250 102.029541,87.325165 112.982979,91.005257 
	C102.678238,95.468147 95.305786,102.087151 91.423988,112.899979 
	C86.772606,103.000641 80.592453,95.169807 69.681465,92.174187 
	C69.778587,91.734749 69.875717,91.295311 69.972839,90.855873 
	C71.738289,89.829498 73.503738,88.803123 75.578026,87.585327 
z"/>
</svg>