<svg version="1.1" id="Layer_1" xmlns="http://www.w3.org/2000/svg" xmlns:xlink="http://www.w3.org/1999/xlink" x="0px" y="0px"
	 width="100%" viewBox="0 0 180 180" enable-background="new 0 0 180 180" xml:space="preserve">
<path fill="none" opacity="1.000000" stroke="none" 
	d="
M102.000000,181.000000 
	C68.000000,181.000000 34.500004,181.000000 1.000005,181.000000 
	C1.000003,121.000008 1.000003,61.000011 1.000001,1.000013 
	C60.999989,1.000008 120.999977,1.000008 180.999969,1.000004 
	C180.999985,60.999985 180.999985,120.999969 181.000000,180.999969 
	C154.833328,181.000000 128.666672,181.000000 102.000000,181.000000 
M119.912888,172.597260 
	C134.502121,166.637360 147.405823,158.537476 157.594635,146.064987 
	C175.114822,124.617867 180.481964,100.130577 175.567932,73.591103 
	C172.034103,54.505711 162.242279,38.445293 147.215118,25.593422 
	C125.729256,7.217786 100.798134,1.419331 73.738655,6.373649 
	C54.188976,9.952998 37.500076,19.912571 24.714451,35.737286 
	C4.941337,60.210384 0.099352,87.615273 8.910642,117.432846 
	C13.910357,134.351974 23.776634,148.322495 37.747932,159.195129 
	C50.522526,169.136475 65.110245,175.229996 81.126419,176.820328 
	C93.923210,178.090958 106.788681,177.084030 119.912888,172.597260 
z"/>
<path fill="#E0316B" opacity="1.000000" stroke="none" 
	d="
M119.547806,172.769318 
	C106.788681,177.084030 93.923210,178.090958 81.126419,176.820328 
	C65.110245,175.229996 50.522526,169.136475 37.747932,159.195129 
	C23.776634,148.322495 13.910357,134.351974 8.910642,117.432846 
	C0.099352,87.615273 4.941337,60.210384 24.714451,35.737286 
	C37.500076,19.912571 54.188976,9.952998 73.738655,6.373649 
	C100.798134,1.419331 125.729256,7.217786 147.215118,25.593422 
	C162.242279,38.445293 172.034103,54.505711 175.567932,73.591103 
	C180.481964,100.130577 175.114822,124.617867 157.594635,146.064987 
	C147.405823,158.537476 134.502121,166.637360 119.547806,172.769318 
M54.997421,98.500000 
	C54.998428,107.330276 55.184593,116.166023 54.924011,124.988571 
	C54.789337,129.548218 56.358391,131.110260 60.972256,131.080124 
	C86.795921,130.911499 112.621826,130.912476 138.445496,131.081360 
	C142.926620,131.110657 144.137375,129.485626 144.105255,125.230888 
	C143.951797,104.905540 144.148819,84.577744 144.033569,64.251869 
	C143.960541,51.371098 146.375687,52.871891 132.336258,52.600201 
	C128.065247,52.517548 126.857269,54.255978 126.990219,58.250561 
	C127.217323,65.073914 127.223541,71.919174 126.893608,78.734459 
	C126.826248,80.125786 125.076897,82.250679 123.735489,82.591545 
	C121.137344,83.251755 119.931458,81.433716 119.971947,78.741112 
	C120.047096,73.744026 120.032135,68.744125 119.964058,63.746635 
	C119.793861,51.253300 122.155281,52.320465 108.008720,52.222595 
	C104.386269,52.197536 102.924667,53.643620 103.008041,57.297733 
	C103.167633,64.291695 103.243561,71.301697 102.895454,78.282158 
	C102.818459,79.826218 101.057297,82.254860 99.682449,82.568130 
	C96.627365,83.264252 95.923241,80.863762 95.972977,78.169319 
	C96.059059,73.505844 96.063957,68.838181 95.975693,64.174683 
	C95.732819,51.342049 98.443939,52.784176 83.645569,52.637280 
	C80.282883,52.603897 78.839417,53.826832 78.925064,57.331402 
	C79.095978,64.324776 79.164581,71.335526 78.808647,78.315292 
	C78.730400,79.849609 76.704247,81.284576 75.575111,82.765297 
	C74.385086,81.334564 72.311493,79.986244 72.168930,78.457809 
	C71.722130,73.667671 72.054733,68.808975 71.992081,63.978050 
	C71.828247,51.344456 73.960304,52.908943 60.467663,52.585819 
	C55.899536,52.476421 54.837250,54.325199 54.905731,58.514175 
	C55.118137,71.506477 54.992065,84.504311 54.997421,98.500000 
M40.210178,126.325920 
	C40.880890,127.467743 41.287632,129.074951 42.285091,129.640701 
	C43.728024,130.459152 45.678665,130.990356 47.254482,130.720444 
	C48.092373,130.576889 49.155331,128.493805 49.167625,127.276604 
	C49.328663,111.332344 49.373955,95.385956 49.250015,79.441643 
	C49.240242,78.184067 47.718098,75.869675 46.967033,75.897354 
	C45.106895,75.965919 42.544930,76.583641 41.597500,77.923195 
	C39.321381,81.141373 37.992165,85.009857 35.946682,88.415207 
	C33.030270,93.270500 32.254902,98.392052 31.960680,104.024712 
	C31.512173,112.611069 36.998940,118.553207 40.210178,126.325920 
z"/>
<path fill="#FEFDFE" opacity="1.000000" stroke="none" 
	d="
M54.997387,98.000000 
	C54.992065,84.504311 55.118137,71.506477 54.905731,58.514175 
	C54.837250,54.325199 55.899536,52.476421 60.467663,52.585819 
	C73.960304,52.908943 71.828247,51.344456 71.992081,63.978050 
	C72.054733,68.808975 71.722130,73.667671 72.168930,78.457809 
	C72.311493,79.986244 74.385086,81.334564 75.575111,82.765297 
	C76.704247,81.284576 78.730400,79.849609 78.808647,78.315292 
	C79.164581,71.335526 79.095978,64.324776 78.925064,57.331402 
	C78.839417,53.826832 80.282883,52.603897 83.645569,52.637280 
	C98.443939,52.784176 95.732819,51.342049 95.975693,64.174683 
	C96.063957,68.838181 96.059059,73.505844 95.972977,78.169319 
	C95.923241,80.863762 96.627365,83.264252 99.682449,82.568130 
	C101.057297,82.254860 102.818459,79.826218 102.895454,78.282158 
	C103.243561,71.301697 103.167633,64.291695 103.008041,57.297733 
	C102.924667,53.643620 104.386269,52.197536 108.008720,52.222595 
	C122.155281,52.320465 119.793861,51.253300 119.964058,63.746635 
	C120.032135,68.744125 120.047096,73.744026 119.971947,78.741112 
	C119.931458,81.433716 121.137344,83.251755 123.735489,82.591545 
	C125.076897,82.250679 126.826248,80.125786 126.893608,78.734459 
	C127.223541,71.919174 127.217323,65.073914 126.990219,58.250561 
	C126.857269,54.255978 128.065247,52.517548 132.336258,52.600201 
	C146.375687,52.871891 143.960541,51.371098 144.033569,64.251869 
	C144.148819,84.577744 143.951797,104.905540 144.105255,125.230888 
	C144.137375,129.485626 142.926620,131.110657 138.445496,131.081360 
	C112.621826,130.912476 86.795921,130.911499 60.972256,131.080124 
	C56.358391,131.110260 54.789337,129.548218 54.924011,124.988571 
	C55.184593,116.166023 54.998428,107.330276 54.997387,98.000000 
z"/>
<path fill="#FEFBFC" opacity="1.000000" stroke="none" 
	d="
M40.063187,125.980888 
	C36.998940,118.553207 31.512173,112.611069 31.960680,104.024712 
	C32.254902,98.392052 33.030270,93.270500 35.946682,88.415207 
	C37.992165,85.009857 39.321381,81.141373 41.597500,77.923195 
	C42.544930,76.583641 45.106895,75.965919 46.967033,75.897354 
	C47.718098,75.869675 49.240242,78.184067 49.250015,79.441643 
	C49.373955,95.385956 49.328663,111.332344 49.167625,127.276604 
	C49.155331,128.493805 48.092373,130.576889 47.254482,130.720444 
	C45.678665,130.990356 43.728024,130.459152 42.285091,129.640701 
	C41.287632,129.074951 40.880890,127.467743 40.063187,125.980888 
z"/>
</svg>