<svg version="1.1" id="Layer_1" xmlns="http://www.w3.org/2000/svg" xmlns:xlink="http://www.w3.org/1999/xlink" x="0px" y="0px"
	 width="100%" viewBox="0 0 180 180" enable-background="new 0 0 180 180" xml:space="preserve">
<path fill="none" opacity="1.000000" stroke="none" 
	d="
M96.000000,181.000000 
	C64.021889,181.000000 32.543777,181.000000 1.032833,181.000000 
	C1.032833,121.063599 1.032833,61.127171 1.032833,1.095371 
	C60.894588,1.095371 120.789383,1.095371 180.842087,1.095371 
	C180.842087,60.999672 180.842087,120.999794 180.842087,181.000000 
	C152.794159,181.000000 124.647079,181.000000 96.000000,181.000000 
M164.555634,136.936050 
	C170.929291,125.658813 175.829025,113.742729 176.863281,100.793449 
	C178.046143,85.983467 176.934662,71.231339 170.706741,57.422718 
	C164.235992,43.075653 155.237778,30.697405 142.120804,21.506536 
	C130.345047,13.255440 117.740273,7.689032 103.295868,5.827736 
	C89.011887,3.987114 75.160416,4.812445 61.702206,9.799865 
	C42.759071,16.819920 27.807163,28.699070 17.188557,46.181805 
	C5.360635,65.655594 2.175231,86.662071 6.457206,108.498528 
	C10.278218,127.984238 20.022903,144.505539 35.732899,157.331238 
	C55.925064,173.816208 78.773842,179.781174 104.388542,176.032623 
	C130.156631,172.261627 149.647934,158.824341 164.555634,136.936050 
z"/>
<path fill="#FF9742" opacity="1.000000" stroke="none" 
	d="
M164.290527,137.198669 
	C149.647934,158.824341 130.156631,172.261627 104.388542,176.032623 
	C78.773842,179.781174 55.925064,173.816208 35.732899,157.331238 
	C20.022903,144.505539 10.278218,127.984238 6.457206,108.498528 
	C2.175231,86.662071 5.360635,65.655594 17.188557,46.181805 
	C27.807163,28.699070 42.759071,16.819920 61.702206,9.799865 
	C75.160416,4.812445 89.011887,3.987114 103.295868,5.827736 
	C117.740273,7.689032 130.345047,13.255440 142.120804,21.506536 
	C155.237778,30.697405 164.235992,43.075653 170.706741,57.422718 
	C176.934662,71.231339 178.046143,85.983467 176.863281,100.793449 
	C175.829025,113.742729 170.929291,125.658813 164.290527,137.198669 
M117.914841,61.492290 
	C117.761726,61.823509 117.608620,62.154724 117.609489,63.279827 
	C118.147095,66.213631 118.897087,69.129845 119.142113,72.087883 
	C119.287544,73.843575 118.899979,75.759560 118.296661,77.439972 
	C116.253220,83.131538 110.871834,86.490303 105.047623,85.947662 
	C99.467178,85.427742 94.948181,81.270508 93.742279,75.547340 
	C92.521095,69.751678 95.187233,64.189255 100.311546,61.127308 
	C101.982529,60.128841 104.203621,58.642139 104.533905,57.040668 
	C106.473801,47.634762 97.072754,30.198498 87.905228,26.101694 
	C91.761604,39.753677 86.545197,49.325603 75.652084,57.215584 
	C63.106045,66.302803 57.202358,79.184898 57.206028,94.712288 
	C57.206688,97.495636 57.206123,100.278984 57.206123,103.062332 
	C56.454151,103.099182 55.702179,103.136032 54.950207,103.172882 
	C53.429375,93.871727 51.908543,84.570564 50.390957,75.289276 
	C37.506466,102.905876 42.602646,134.266571 71.206573,146.843460 
	C94.966309,157.290359 123.168983,147.018600 128.213455,132.995895 
	C123.872620,134.488907 119.716789,136.134766 115.438805,137.350952 
	C99.781425,141.802124 85.796280,138.074936 77.806992,127.488457 
	C71.683708,119.374588 72.694565,108.108307 80.112198,101.796211 
	C87.124672,95.828880 97.727043,96.347359 104.131050,102.970757 
	C110.700829,109.765617 110.707314,120.882278 104.168877,128.394287 
	C103.388039,129.291382 102.722519,130.288834 101.834465,131.463409 
	C118.008034,133.946671 131.287323,124.620583 136.643250,107.535568 
	C142.119476,90.066788 133.851395,69.719780 117.914841,61.492290 
z"/>
<path fill="#FEFDFB" opacity="1.000000" stroke="none" 
	d="
M118.096176,61.892921 
	C133.851395,69.719780 142.119476,90.066788 136.643250,107.535568 
	C131.287323,124.620583 118.008034,133.946671 101.834465,131.463409 
	C102.722519,130.288834 103.388039,129.291382 104.168877,128.394287 
	C110.707314,120.882278 110.700829,109.765617 104.131050,102.970757 
	C97.727043,96.347359 87.124672,95.828880 80.112198,101.796211 
	C72.694565,108.108307 71.683708,119.374588 77.806992,127.488457 
	C85.796280,138.074936 99.781425,141.802124 115.438805,137.350952 
	C119.716789,136.134766 123.872620,134.488907 128.213455,132.995895 
	C123.168983,147.018600 94.966309,157.290359 71.206573,146.843460 
	C42.602646,134.266571 37.506466,102.905876 50.390957,75.289276 
	C51.908543,84.570564 53.429375,93.871727 54.950207,103.172882 
	C55.702179,103.136032 56.454151,103.099182 57.206123,103.062332 
	C57.206123,100.278984 57.206688,97.495636 57.206028,94.712288 
	C57.202358,79.184898 63.106045,66.302803 75.652084,57.215584 
	C86.545197,49.325603 91.761604,39.753677 87.905228,26.101694 
	C97.072754,30.198498 106.473801,47.634762 104.533905,57.040668 
	C104.203621,58.642139 101.982529,60.128841 100.311546,61.127308 
	C95.187233,64.189255 92.521095,69.751678 93.742279,75.547340 
	C94.948181,81.270508 99.467178,85.427742 105.047623,85.947662 
	C110.871834,86.490303 116.253220,83.131538 118.296661,77.439972 
	C118.899979,75.759560 119.287544,73.843575 119.142113,72.087883 
	C118.897087,69.129845 118.147095,66.213631 117.696320,62.738579 
	C117.783150,62.197330 118.096176,61.892921 118.096176,61.892921 
z"/>
<path fill="#FEFDFB" opacity="1.000000" stroke="none" 
	d="
M117.619331,62.341637 
	C117.608620,62.154724 117.761726,61.823509 118.005508,61.692604 
	C118.096176,61.892921 117.783150,62.197330 117.619331,62.341637 
z"/>
</svg>