<svg version="1.1" id="Layer_1" xmlns="http://www.w3.org/2000/svg" xmlns:xlink="http://www.w3.org/1999/xlink" x="0px" y="0px"
	 width="100%" viewBox="0 0 180 180" enable-background="new 0 0 180 180" xml:space="preserve">
<path fill="none" opacity="1.000000" stroke="none" 
	d="
M102.000000,181.000000 
	C68.000000,181.000000 34.500004,181.000000 1.000005,181.000000 
	C1.000003,121.000008 1.000003,61.000011 1.000001,1.000013 
	C60.999989,1.000008 120.999977,1.000008 180.999969,1.000004 
	C180.999985,60.999985 180.999985,120.999969 181.000000,180.999969 
	C154.833328,181.000000 128.666672,181.000000 102.000000,181.000000 
M115.337654,173.992554 
	C136.346909,167.111649 153.146698,155.013992 164.839645,135.809799 
	C176.700165,116.330360 179.737610,95.341873 175.563309,73.541306 
	C171.900803,54.413490 162.220215,38.298523 147.075897,25.443485 
	C125.615051,7.226727 100.771324,1.425861 73.849541,6.344419 
	C54.267170,9.922078 37.503803,19.877115 24.663330,35.771358 
	C4.957384,60.163860 -0.082828,87.594055 8.827587,117.164253 
	C16.362862,142.170898 32.878445,160.093750 56.998188,170.428940 
	C75.643486,178.418381 94.927925,179.297836 115.337654,173.992554 
z"/>
<path fill="#89AAE3" opacity="1.000000" stroke="none" 
	d="
M114.918167,174.000214 
	C94.927925,179.297836 75.643486,178.418381 56.998188,170.428940 
	C32.878445,160.093750 16.362862,142.170898 8.827587,117.164253 
	C-0.082828,87.594055 4.957384,60.163860 24.663330,35.771358 
	C37.503803,19.877115 54.267170,9.922078 73.849541,6.344419 
	C100.771324,1.425861 125.615051,7.226727 147.075897,25.443485 
	C162.220215,38.298523 171.900803,54.413490 175.563309,73.541306 
	C179.737610,95.341873 176.700165,116.330360 164.839645,135.809799 
	C153.146698,155.013992 136.346909,167.111649 114.918167,174.000214 
M128.238907,103.091675 
	C119.397461,109.041672 110.097061,109.180725 100.412903,105.350761 
	C114.137352,106.239845 124.940109,101.388474 132.457184,89.679611 
	C119.595093,95.838707 106.641258,97.283424 93.287094,91.334679 
	C108.131119,92.166588 122.106087,90.053368 132.759079,78.622559 
	C142.922302,67.717270 148.165192,54.739609 147.978546,38.690102 
	C128.748505,57.455521 128.703278,57.813549 102.090340,61.293903 
	C92.404572,62.560577 82.469933,61.921421 72.648979,62.157650 
	C47.443409,62.763939 29.534580,84.584770 34.036144,109.201492 
	C36.988735,125.347694 50.026051,137.860229 66.854851,140.699219 
	C82.327721,143.309433 99.031036,135.400299 106.699051,121.563049 
	C107.607773,119.923210 107.235252,117.573341 107.515358,115.016617 
	C115.372810,114.088173 124.591156,113.066513 129.578674,103.054092 
	C129.359207,103.005867 129.139725,102.957642 128.238907,103.091675 
z"/>
<path fill="#FDFDFE" opacity="1.000000" stroke="none" 
	d="
M129.304367,103.299736 
	C124.591156,113.066513 115.372810,114.088173 107.515358,115.016617 
	C107.235252,117.573341 107.607773,119.923210 106.699051,121.563049 
	C99.031036,135.400299 82.327721,143.309433 66.854851,140.699219 
	C50.026051,137.860229 36.988735,125.347694 34.036144,109.201492 
	C29.534580,84.584770 47.443409,62.763939 72.648979,62.157650 
	C82.469933,61.921421 92.404572,62.560577 102.090340,61.293903 
	C128.703278,57.813549 128.748505,57.455521 147.978546,38.690102 
	C148.165192,54.739609 142.922302,67.717270 132.759079,78.622559 
	C122.106087,90.053368 108.131119,92.166588 93.287094,91.334679 
	C106.641258,97.283424 119.595093,95.838707 132.457184,89.679611 
	C124.940109,101.388474 114.137352,106.239845 100.412903,105.350761 
	C110.097061,109.180725 119.397461,109.041672 128.675323,103.098412 
	C129.111725,103.105148 129.304367,103.299736 129.304367,103.299736 
z"/>
<path fill="#FDFDFE" opacity="1.000000" stroke="none" 
	d="
M129.015991,103.007286 
	C129.139725,102.957642 129.359207,103.005867 129.441528,103.176910 
	C129.304367,103.299736 129.111725,103.105148 129.015991,103.007286 
z"/>
</svg>