<svg version="1.1" id="Layer_1" xmlns="http://www.w3.org/2000/svg" xmlns:xlink="http://www.w3.org/1999/xlink" x="0px" y="0px"
	 width="100%" viewBox="0 0 180 180" enable-background="new 0 0 180 180" xml:space="preserve">
<path fill="none" opacity="1.000000" stroke="none" 
	d="
M96.000000,181.000000 
	C64.021889,181.000000 32.543777,181.000000 1.032833,181.000000 
	C1.032833,121.063599 1.032833,61.127171 1.032833,1.095371 
	C60.894588,1.095371 120.789383,1.095371 180.842087,1.095371 
	C180.842087,60.999672 180.842087,120.999794 180.842087,181.000000 
	C152.794159,181.000000 124.647079,181.000000 96.000000,181.000000 
M171.504074,60.000191 
	C166.207092,46.459446 158.251953,34.937328 147.055710,25.428888 
	C125.595139,7.203467 100.745758,1.429581 73.756271,6.394498 
	C54.098686,10.010656 37.510937,20.130095 24.510984,35.879318 
	C8.705336,55.027588 2.550981,77.152031 5.266520,101.276466 
	C7.790596,123.699989 18.010590,142.643326 35.733994,157.330429 
	C57.113369,175.047180 81.694458,180.519424 108.340271,175.574585 
	C128.042084,171.918365 144.738907,161.993195 157.513550,146.027679 
	C178.173706,120.207047 182.026932,91.642372 171.504074,60.000191 
z"/>
<path fill="#4D6AB2" opacity="1.000000" stroke="none" 
	d="
M171.710602,60.337940 
	C182.026932,91.642372 178.173706,120.207047 157.513550,146.027679 
	C144.738907,161.993195 128.042084,171.918365 108.340271,175.574585 
	C81.694458,180.519424 57.113369,175.047180 35.733994,157.330429 
	C18.010590,142.643326 7.790596,123.699989 5.266520,101.276466 
	C2.550981,77.152031 8.705336,55.027588 24.510984,35.879318 
	C37.510937,20.130095 54.098686,10.010656 73.756271,6.394498 
	C100.745758,1.429581 125.595139,7.203467 147.055710,25.428888 
	C158.251953,34.937328 166.207092,46.459446 171.710602,60.337940 
M132.902237,55.635441 
	C119.467537,39.444820 102.119537,32.580463 81.462372,35.461914 
	C57.750629,38.769444 38.779102,57.631912 35.204697,80.256073 
	C31.500690,103.700554 43.079571,126.041069 64.945404,137.346634 
	C80.736748,145.511459 97.720879,146.699600 115.031464,145.306152 
	C125.454468,144.467148 131.677307,142.495071 136.558044,139.089478 
	C135.981369,138.684540 135.464294,138.287567 134.915314,137.941147 
	C128.514023,133.901505 126.514343,129.832413 132.356491,122.671028 
	C148.630646,102.722000 148.678207,77.739143 132.902237,55.635441 
z"/>
<path fill="#FDFDFD" opacity="1.000000" stroke="none" 
	d="
M133.116272,55.922577 
	C148.678207,77.739143 148.630646,102.722000 132.356491,122.671028 
	C126.514343,129.832413 128.514023,133.901505 134.915314,137.941147 
	C135.464294,138.287567 135.981369,138.684540 136.558044,139.089478 
	C131.677307,142.495071 125.454468,144.467148 115.031464,145.306152 
	C97.720879,146.699600 80.736748,145.511459 64.945404,137.346634 
	C43.079571,126.041069 31.500690,103.700554 35.204697,80.256073 
	C38.779102,57.631912 57.750629,38.769444 81.462372,35.461914 
	C102.119537,32.580463 119.467537,39.444820 133.116272,55.922577 
M79.323372,82.991966 
	C70.523575,83.804329 68.076553,82.111000 63.558762,72.082901 
	C58.720222,75.321587 56.843410,80.061073 58.339298,85.263565 
	C59.772491,90.248016 64.145149,93.762459 69.267204,94.046684 
	C74.629448,94.344223 79.398018,91.606026 81.155708,86.783752 
	C81.539627,85.730461 80.554466,84.178146 79.323372,82.991966 
M116.141640,91.840027 
	C123.188858,85.185318 122.838425,76.331215 115.362892,72.164009 
	C111.615486,82.036125 110.011238,83.012062 97.317909,83.141624 
	C97.959244,92.375809 106.239922,96.523232 116.141640,91.840027 
z"/>
<path fill="#526FB5" opacity="1.000000" stroke="none" 
	d="
M79.761604,82.923813 
	C80.554466,84.178146 81.539627,85.730461 81.155708,86.783752 
	C79.398018,91.606026 74.629448,94.344223 69.267204,94.046684 
	C64.145149,93.762459 59.772491,90.248016 58.339298,85.263565 
	C56.843410,80.061073 58.720222,75.321587 63.558762,72.082901 
	C68.076553,82.111000 70.523575,83.804329 79.761604,82.923813 
z"/>
<path fill="#526FB5" opacity="1.000000" stroke="none" 
	d="
M115.807648,92.037529 
	C106.239922,96.523232 97.959244,92.375809 97.317909,83.141624 
	C110.011238,83.012062 111.615486,82.036125 115.362892,72.164009 
	C122.838425,76.331215 123.188858,85.185318 115.807648,92.037529 
z"/>
</svg>