<svg version="1.1" id="Layer_1" xmlns="http://www.w3.org/2000/svg" xmlns:xlink="http://www.w3.org/1999/xlink" x="0px" y="0px"
	 width="100%" viewBox="0 0 180 180" enable-background="new 0 0 180 180" xml:space="preserve">
<path fill="none" opacity="1.000000" stroke="none" 
	d="
M97.000000,181.000000 
	C64.688789,181.000000 32.877575,181.000000 1.033180,181.000000 
	C1.033180,121.063828 1.033180,61.127632 1.033180,1.095719 
	C60.894360,1.095719 120.788925,1.095719 180.841736,1.095719 
	C180.841736,60.999668 180.841736,120.999794 180.841736,181.000000 
	C153.127960,181.000000 125.313980,181.000000 97.000000,181.000000 
M48.428070,15.912638 
	C39.495712,21.251593 31.383835,27.422792 24.714499,35.641514 
	C8.312929,55.853420 2.172776,78.672348 5.938135,104.304893 
	C9.076664,125.670311 18.904291,143.259293 35.540432,157.061615 
	C59.781914,177.173752 87.365158,181.924164 117.011864,173.274567 
	C138.297073,167.064468 154.788284,153.668716 165.880951,134.258240 
	C177.057251,114.701431 179.825134,93.738251 175.029556,71.816689 
	C170.969971,53.259586 161.594589,37.905312 147.092850,25.494492 
	C133.160492,13.570969 117.146263,6.695905 99.045563,5.100284 
	C81.446701,3.548902 64.612244,6.753520 48.428070,15.912638 
z"/>
<path fill="#39BF4C" opacity="1.000000" stroke="none" 
	d="
M48.731319,15.694657 
	C64.612244,6.753520 81.446701,3.548902 99.045563,5.100284 
	C117.146263,6.695905 133.160492,13.570969 147.092850,25.494492 
	C161.594589,37.905312 170.969971,53.259586 175.029556,71.816689 
	C179.825134,93.738251 177.057251,114.701431 165.880951,134.258240 
	C154.788284,153.668716 138.297073,167.064468 117.011864,173.274567 
	C87.365158,181.924164 59.781914,177.173752 35.540432,157.061615 
	C18.904291,143.259293 9.076664,125.670311 5.938135,104.304893 
	C2.172776,78.672348 8.312929,55.853420 24.714499,35.641514 
	C31.383835,27.422792 39.495712,21.251593 48.731319,15.694657 
M83.328773,75.043495 
	C82.830444,70.742470 82.332108,66.441444 81.833771,62.140423 
	C82.397400,61.986664 82.961029,61.832905 83.524658,61.679146 
	C88.418144,66.671013 88.475449,74.364410 92.614418,80.198402 
	C100.450600,71.985107 108.002724,64.069534 115.554848,56.153965 
	C116.262665,56.708031 116.970482,57.262093 117.678291,57.816158 
	C112.912788,67.780838 105.927612,76.568108 100.498680,86.664795 
	C107.614426,87.779755 114.225502,88.815643 120.836578,89.851524 
	C120.819733,90.497627 120.802887,91.143730 120.786034,91.789825 
	C119.493477,92.205330 118.227638,92.833344 116.903770,92.999809 
	C110.959335,93.747246 104.982010,94.248718 99.053154,95.095230 
	C97.213814,95.357864 94.745934,95.912598 93.840599,97.217819 
	C89.702652,103.183510 86.017731,109.463425 81.770813,116.270355 
	C84.138870,116.396782 85.739952,116.550217 87.341583,116.556168 
	C94.837051,116.584015 102.334564,116.484612 109.826569,116.648903 
	C111.258186,116.680298 112.668259,117.694237 114.088272,118.254868 
	C112.726425,119.158936 111.462036,120.619240 109.987068,120.877670 
	C99.663589,122.686409 89.284561,124.177032 78.955902,125.958458 
	C77.319649,126.240669 75.311714,127.086807 74.400497,128.343063 
	C71.687248,132.083710 69.434723,136.158539 66.869049,140.318665 
	C68.219040,141.000366 69.197655,141.575623 70.236031,142.007050 
	C98.438301,153.724670 128.551193,138.576370 135.820877,108.223328 
	C141.359116,85.099541 138.847580,61.894897 133.491379,38.983006 
	C133.217316,37.810638 131.064789,36.297432 129.770569,36.281689 
	C124.788956,36.221085 119.769012,36.440758 114.820587,37.033627 
	C95.886795,39.302086 77.436211,43.288105 60.597641,52.839958 
	C49.842979,58.940662 42.182766,67.645561 38.556671,79.477631 
	C33.243805,96.813683 36.397911,112.534622 48.331726,126.899391 
	C51.112915,124.027748 53.312675,121.268364 55.993198,119.104553 
	C59.889336,115.959480 60.335361,112.154694 59.744938,107.554665 
	C58.643307,98.971786 57.912792,90.339676 57.125458,81.719147 
	C56.926373,79.539352 57.095638,77.325920 57.095638,74.930595 
	C58.405186,75.158913 59.226383,75.131241 59.290230,75.337746 
	C62.348473,85.228561 65.341255,95.139633 68.361740,105.115593 
	C71.354309,102.240799 73.961243,99.170204 77.109138,96.826065 
	C84.484978,91.333511 86.341515,84.400246 83.328773,75.043495 
z"/>
<path fill="#FBFDFB" opacity="1.000000" stroke="none" 
	d="
M83.421539,75.476105 
	C86.341515,84.400246 84.484978,91.333511 77.109138,96.826065 
	C73.961243,99.170204 71.354309,102.240799 68.361740,105.115593 
	C65.341255,95.139633 62.348473,85.228561 59.290230,75.337746 
	C59.226383,75.131241 58.405186,75.158913 57.095638,74.930595 
	C57.095638,77.325920 56.926373,79.539352 57.125458,81.719147 
	C57.912792,90.339676 58.643307,98.971786 59.744938,107.554665 
	C60.335361,112.154694 59.889336,115.959480 55.993198,119.104553 
	C53.312675,121.268364 51.112915,124.027748 48.331726,126.899391 
	C36.397911,112.534622 33.243805,96.813683 38.556671,79.477631 
	C42.182766,67.645561 49.842979,58.940662 60.597641,52.839958 
	C77.436211,43.288105 95.886795,39.302086 114.820587,37.033627 
	C119.769012,36.440758 124.788956,36.221085 129.770569,36.281689 
	C131.064789,36.297432 133.217316,37.810638 133.491379,38.983006 
	C138.847580,61.894897 141.359116,85.099541 135.820877,108.223328 
	C128.551193,138.576370 98.438301,153.724670 70.236031,142.007050 
	C69.197655,141.575623 68.219040,141.000366 66.869049,140.318665 
	C69.434723,136.158539 71.687248,132.083710 74.400497,128.343063 
	C75.311714,127.086807 77.319649,126.240669 78.955902,125.958458 
	C89.284561,124.177032 99.663589,122.686409 109.987068,120.877670 
	C111.462036,120.619240 112.726425,119.158936 114.088272,118.254868 
	C112.668259,117.694237 111.258186,116.680298 109.826569,116.648903 
	C102.334564,116.484612 94.837051,116.584015 87.341583,116.556168 
	C85.739952,116.550217 84.138870,116.396782 81.770813,116.270355 
	C86.017731,109.463425 89.702652,103.183510 93.840599,97.217819 
	C94.745934,95.912598 97.213814,95.357864 99.053154,95.095230 
	C104.982010,94.248718 110.959335,93.747246 116.903770,92.999809 
	C118.227638,92.833344 119.493477,92.205330 120.786034,91.789825 
	C120.802887,91.143730 120.819733,90.497627 120.836578,89.851524 
	C114.225502,88.815643 107.614426,87.779755 100.498680,86.664795 
	C105.927612,76.568108 112.912788,67.780838 117.678291,57.816158 
	C116.970482,57.262093 116.262665,56.708031 115.554848,56.153965 
	C108.002724,64.069534 100.450600,71.985107 92.614418,80.198402 
	C88.475449,74.364410 88.418144,66.671013 83.524658,61.679146 
	C82.961029,61.832905 82.397400,61.986664 81.833771,62.140423 
	C82.332108,66.441444 82.830444,70.742470 83.421539,75.476105 
z"/>
</svg>