<svg version="1.1" id="Layer_1" xmlns="http://www.w3.org/2000/svg" xmlns:xlink="http://www.w3.org/1999/xlink" x="0px" y="0px"
	 width="100%" viewBox="0 0 180 180" enable-background="new 0 0 180 180" xml:space="preserve">
<path fill="none" opacity="1.000000" stroke="none" 
	d="
M103.000000,181.000000 
	C68.666672,181.000000 34.833336,181.000000 1.000005,181.000000 
	C1.000003,121.000008 1.000003,61.000011 1.000002,1.000013 
	C60.999989,1.000008 120.999977,1.000008 180.999969,1.000004 
	C180.999985,60.999985 180.999985,120.999969 181.000000,180.999969 
	C155.166672,181.000000 129.333328,181.000000 103.000000,181.000000 
M56.462963,170.085541 
	C71.863647,177.118546 87.956207,178.519241 104.537460,176.023026 
	C129.545288,172.258209 149.026657,159.662430 162.976715,138.748444 
	C175.320419,120.242661 179.355057,99.805161 176.091858,77.782799 
	C172.988419,56.838673 163.376740,39.665318 147.401993,25.861090 
	C127.177086,8.384187 103.802185,2.145562 77.567818,5.984787 
	C56.333355,9.092308 38.853840,18.934299 25.051014,35.410076 
	C8.147044,55.587536 2.286861,78.681778 5.927649,104.586548 
	C8.579945,123.458038 17.229286,139.207321 30.272276,152.629578 
	C37.497459,160.064865 46.197140,165.679688 56.462963,170.085541 
z"/>
<path fill="#E87236" opacity="1.000000" stroke="none" 
	d="
M56.083313,170.012085 
	C46.197140,165.679688 37.497459,160.064865 30.272276,152.629578 
	C17.229286,139.207321 8.579945,123.458038 5.927649,104.586548 
	C2.286861,78.681778 8.147044,55.587536 25.051014,35.410076 
	C38.853840,18.934299 56.333355,9.092308 77.567818,5.984787 
	C103.802185,2.145562 127.177086,8.384187 147.401993,25.861090 
	C163.376740,39.665318 172.988419,56.838673 176.091858,77.782799 
	C179.355057,99.805161 175.320419,120.242661 162.976715,138.748444 
	C149.026657,159.662430 129.545288,172.258209 104.537460,176.023026 
	C87.956207,178.519241 71.863647,177.118546 56.083313,170.012085 
M150.619476,119.773170 
	C142.355865,98.357071 134.011230,76.971542 125.909218,55.494488 
	C124.575096,51.957951 122.831757,50.754360 119.045280,50.894539 
	C110.392693,51.214867 101.712700,51.205307 93.059166,50.898026 
	C89.323700,50.765381 87.503204,51.848442 86.137787,55.422428 
	C78.064301,76.554924 69.729118,97.587433 61.493233,118.657967 
	C60.914791,120.137848 60.426788,121.653069 59.757118,123.546631 
	C90.724983,123.546631 120.984940,123.546631 151.610580,123.546631 
	C151.330582,122.340042 151.115326,121.412453 150.619476,119.773170 
M61.545605,80.078796 
	C63.016048,76.074768 64.486488,72.070740 66.233063,67.314812 
	C60.932755,67.314812 56.321030,67.501358 51.733475,67.248863 
	C48.703178,67.082077 47.304501,68.254974 46.278931,71.018677 
	C42.172661,82.084213 37.854095,93.070992 33.609165,104.085030 
	C31.112175,110.563797 28.606003,117.039032 25.913475,124.008934 
	C31.337404,124.008934 36.156040,123.788574 40.942604,124.085434 
	C44.201771,124.287552 45.580257,123.006554 46.641438,120.062370 
	C51.376385,106.925514 56.343872,93.872475 61.545605,80.078796 
z"/>
<path fill="#FFFEFD" opacity="1.000000" stroke="none" 
	d="
M150.759766,120.129013 
	C151.115326,121.412453 151.330582,122.340042 151.610580,123.546631 
	C120.984940,123.546631 90.724983,123.546631 59.757118,123.546631 
	C60.426788,121.653069 60.914791,120.137848 61.493233,118.657967 
	C69.729118,97.587433 78.064301,76.554924 86.137787,55.422428 
	C87.503204,51.848442 89.323700,50.765381 93.059166,50.898026 
	C101.712700,51.205307 110.392693,51.214867 119.045280,50.894539 
	C122.831757,50.754360 124.575096,51.957951 125.909218,55.494488 
	C134.011230,76.971542 142.355865,98.357071 150.759766,120.129013 
z"/>
<path fill="#FFFCFB" opacity="1.000000" stroke="none" 
	d="
M61.386478,80.433975 
	C56.343872,93.872475 51.376385,106.925514 46.641438,120.062370 
	C45.580257,123.006554 44.201771,124.287552 40.942604,124.085434 
	C36.156040,123.788574 31.337404,124.008934 25.913475,124.008934 
	C28.606003,117.039032 31.112175,110.563797 33.609165,104.085030 
	C37.854095,93.070992 42.172661,82.084213 46.278931,71.018677 
	C47.304501,68.254974 48.703178,67.082077 51.733475,67.248863 
	C56.321030,67.501358 60.932755,67.314812 66.233063,67.314812 
	C64.486488,72.070740 63.016048,76.074768 61.386478,80.433975 
z"/>
</svg>