<svg version="1.1" id="Layer_1" xmlns="http://www.w3.org/2000/svg" xmlns:xlink="http://www.w3.org/1999/xlink" x="0px" y="0px"
	 width="100%" viewBox="0 0 180 180" enable-background="new 0 0 180 180" xml:space="preserve">
<path fill="none" opacity="1.000000" stroke="none" 
	d="
M101.000000,181.000000 
	C67.333336,181.000000 34.166672,181.000000 1.000005,181.000000 
	C1.000003,121.000008 1.000003,61.000011 1.000001,1.000013 
	C60.999989,1.000008 120.999977,1.000008 180.999969,1.000004 
	C180.999985,60.999985 180.999985,120.999969 181.000000,180.999969 
	C154.500000,181.000000 128.000000,181.000000 101.000000,181.000000 
M47.039585,16.433905 
	C34.685627,24.217230 24.346699,33.958679 16.821213,46.633114 
	C5.326251,65.992928 2.162238,86.910095 6.485084,108.615173 
	C10.372178,128.132324 20.116652,144.645355 35.853992,157.427216 
	C55.954086,173.752533 78.692696,179.744171 104.197327,176.060654 
	C125.633568,172.964722 143.219757,163.135666 157.050629,146.472122 
	C177.551071,121.773064 181.957626,93.815636 172.850403,63.698116 
	C168.200348,48.320381 159.228149,35.357380 146.590775,24.989784 
	C131.875992,12.917902 115.261864,6.145464 96.254066,4.966884 
	C78.937271,3.893153 62.855156,7.891538 47.039585,16.433905 
z"/>
<path fill="#4DD1C0" opacity="1.000000" stroke="none" 
	d="
M47.358250,16.232588 
	C62.855156,7.891538 78.937271,3.893153 96.254066,4.966884 
	C115.261864,6.145464 131.875992,12.917902 146.590775,24.989784 
	C159.228149,35.357380 168.200348,48.320381 172.850403,63.698116 
	C181.957626,93.815636 177.551071,121.773064 157.050629,146.472122 
	C143.219757,163.135666 125.633568,172.964722 104.197327,176.060654 
	C78.692696,179.744171 55.954086,173.752533 35.853992,157.427216 
	C20.116652,144.645355 10.372178,128.132324 6.485084,108.615173 
	C2.162238,86.910095 5.326251,65.992928 16.821213,46.633114 
	C24.346699,33.958679 34.685627,24.217230 47.358250,16.232588 
M57.360565,133.435349 
	C57.360565,136.804916 57.360565,140.174484 57.360565,144.375046 
	C67.597267,138.977692 76.736427,134.234528 85.768684,129.295868 
	C86.831390,128.714783 87.933105,127.070801 87.955009,125.899696 
	C88.131729,116.452957 88.054047,107.001472 88.054047,96.650322 
	C77.913101,101.690048 68.396004,106.309845 59.035992,111.228561 
	C58.015255,111.764954 57.485847,114.010895 57.438095,115.486855 
	C57.255280,121.137405 57.362228,126.797325 57.360565,133.435349 
M88.065224,80.149536 
	C88.064827,72.662125 88.138664,65.173355 88.001740,57.688446 
	C87.974190,56.182682 87.603966,53.872231 86.616692,53.321056 
	C77.263100,48.099087 67.741829,43.177464 57.402985,37.711597 
	C57.402985,48.564011 57.358784,58.328598 57.472206,68.091354 
	C57.483398,69.054520 58.218132,70.477577 59.025208,70.891693 
	C68.428177,75.716362 77.909554,80.388214 87.787697,85.308464 
	C87.916420,83.325829 87.990395,82.186447 88.065224,80.149536 
M121.670166,142.733078 
	C123.564613,143.787750 124.806038,143.735168 124.723061,141.068253 
	C124.655945,138.911102 124.749634,136.749451 124.713974,134.590759 
	C124.590904,127.139824 126.954971,118.147408 123.595528,112.673195 
	C120.249680,107.221138 111.171265,105.259239 104.564659,101.847816 
	C101.268593,100.145851 97.879341,98.624344 93.992447,96.762665 
	C93.992447,106.927864 93.850601,116.225113 94.136757,125.509178 
	C94.182655,126.998207 95.828613,128.990967 97.268364,129.791901 
	C105.098373,134.147705 113.095596,138.202911 121.670166,142.733078 
M115.374092,74.907417 
	C117.006470,74.090828 118.734085,73.418106 120.244942,72.417953 
	C121.814018,71.379257 124.388374,70.065758 124.432076,68.800247 
	C124.777985,58.781876 124.624504,48.746262 124.624504,37.823975 
	C114.351830,43.225670 104.974510,48.108013 95.673798,53.132160 
	C94.861534,53.570938 94.092728,54.936169 94.081215,55.880554 
	C93.964691,65.441315 94.010132,75.004051 94.010132,85.495804 
	C101.425934,81.802238 108.056168,78.499939 115.374092,74.907417 
M55.202820,77.252525 
	C46.149059,81.671257 37.095295,86.089989 26.905130,91.063347 
	C37.545628,96.221619 47.044395,100.841232 56.570568,105.403625 
	C57.082520,105.648819 57.923546,105.619965 58.445133,105.370743 
	C67.970779,100.819260 77.470940,96.214447 88.206902,91.026398 
	C77.419449,85.849373 67.897690,81.253967 58.333267,76.749153 
	C57.711926,76.456497 56.762615,76.860184 55.202820,77.252525 
M103.696671,95.782578 
	C106.980690,97.375122 110.569153,98.543930 113.489761,100.642296 
	C121.227463,106.201576 128.396011,105.488518 136.186462,100.513313 
	C141.790451,96.934441 148.120453,94.492386 155.236526,90.998230 
	C144.663605,85.882797 135.313553,81.338173 125.930016,76.863770 
	C125.272156,76.550072 124.227341,76.463631 123.597061,76.763924 
	C114.085365,81.295731 104.613007,85.910095 94.057251,91.025650 
	C97.804588,92.858772 100.425652,94.140938 103.696671,95.782578 
z"/>
<path fill="#FBFEFD" opacity="1.000000" stroke="none" 
	d="
M57.360794,132.944550 
	C57.362228,126.797325 57.255280,121.137405 57.438095,115.486855 
	C57.485847,114.010895 58.015255,111.764954 59.035992,111.228561 
	C68.396004,106.309845 77.913101,101.690048 88.054047,96.650322 
	C88.054047,107.001472 88.131729,116.452957 87.955009,125.899696 
	C87.933105,127.070801 86.831390,128.714783 85.768684,129.295868 
	C76.736427,134.234528 67.597267,138.977692 57.360565,144.375046 
	C57.360565,140.174484 57.360565,136.804916 57.360794,132.944550 
z"/>
<path fill="#FBFEFE" opacity="1.000000" stroke="none" 
	d="
M88.064804,80.598297 
	C87.990395,82.186447 87.916420,83.325829 87.787697,85.308464 
	C77.909554,80.388214 68.428177,75.716362 59.025208,70.891693 
	C58.218132,70.477577 57.483398,69.054520 57.472206,68.091354 
	C57.358784,58.328598 57.402985,48.564011 57.402985,37.711597 
	C67.741829,43.177464 77.263100,48.099087 86.616692,53.321056 
	C87.603966,53.872231 87.974190,56.182682 88.001740,57.688446 
	C88.138664,65.173355 88.064827,72.662125 88.064804,80.598297 
z"/>
<path fill="#FBFEFE" opacity="1.000000" stroke="none" 
	d="
M121.352722,142.547333 
	C113.095596,138.202911 105.098373,134.147705 97.268364,129.791901 
	C95.828613,128.990967 94.182655,126.998207 94.136757,125.509178 
	C93.850601,116.225113 93.992447,106.927864 93.992447,96.762665 
	C97.879341,98.624344 101.268593,100.145851 104.564659,101.847816 
	C111.171265,105.259239 120.249680,107.221138 123.595528,112.673195 
	C126.954971,118.147408 124.590904,127.139824 124.713974,134.590759 
	C124.749634,136.749451 124.655945,138.911102 124.723061,141.068253 
	C124.806038,143.735168 123.564613,143.787750 121.352722,142.547333 
z"/>
<path fill="#FCFEFE" opacity="1.000000" stroke="none" 
	d="
M115.030243,75.052528 
	C108.056168,78.499939 101.425934,81.802238 94.010132,85.495804 
	C94.010132,75.004051 93.964691,65.441315 94.081215,55.880554 
	C94.092728,54.936169 94.861534,53.570938 95.673798,53.132160 
	C104.974510,48.108013 114.351830,43.225670 124.624504,37.823975 
	C124.624504,48.746262 124.777985,58.781876 124.432076,68.800247 
	C124.388374,70.065758 121.814018,71.379257 120.244942,72.417953 
	C118.734085,73.418106 117.006470,74.090828 115.030243,75.052528 
z"/>
<path fill="#FBFEFE" opacity="1.000000" stroke="none" 
	d="
M55.584343,77.096237 
	C56.762615,76.860184 57.711926,76.456497 58.333267,76.749153 
	C67.897690,81.253967 77.419449,85.849373 88.206902,91.026398 
	C77.470940,96.214447 67.970779,100.819260 58.445133,105.370743 
	C57.923546,105.619965 57.082520,105.648819 56.570568,105.403625 
	C47.044395,100.841232 37.545628,96.221619 26.905130,91.063347 
	C37.095295,86.089989 46.149059,81.671257 55.584343,77.096237 
z"/>
<path fill="#FCFEFE" opacity="1.000000" stroke="none" 
	d="
M103.371689,95.602844 
	C100.425652,94.140938 97.804588,92.858772 94.057251,91.025650 
	C104.613007,85.910095 114.085365,81.295731 123.597061,76.763924 
	C124.227341,76.463631 125.272156,76.550072 125.930016,76.863770 
	C135.313553,81.338173 144.663605,85.882797 155.236526,90.998230 
	C148.120453,94.492386 141.790451,96.934441 136.186462,100.513313 
	C128.396011,105.488518 121.227463,106.201576 113.489761,100.642296 
	C110.569153,98.543930 106.980690,97.375122 103.371689,95.602844 
z"/>
</svg>