<svg version="1.1" id="Layer_1" xmlns="http://www.w3.org/2000/svg" xmlns:xlink="http://www.w3.org/1999/xlink" x="0px" y="0px"
	 width="100%" viewBox="0 0 180 180" enable-background="new 0 0 180 180" xml:space="preserve">
<path fill="none" opacity="1.000000" stroke="none" 
	d="
M100.000000,181.000000 
	C66.666672,181.000000 33.833336,181.000000 1.000004,181.000000 
	C1.000003,121.000008 1.000003,61.000011 1.000001,1.000012 
	C60.999989,1.000008 120.999977,1.000008 180.999969,1.000004 
	C180.999985,60.999989 180.999985,120.999977 181.000000,180.999985 
	C154.166672,181.000000 127.333336,181.000000 100.000000,181.000000 
M125.537292,11.916245 
	C108.977806,4.172912 91.357239,2.708540 73.947441,6.340203 
	C49.847431,11.367437 30.632967,24.311407 17.426876,45.862598 
	C5.452611,65.403549 2.209917,86.435211 6.412427,108.319740 
	C10.174115,127.908669 20.012270,144.535675 35.820969,157.412491 
	C55.931377,173.793198 78.684357,179.738510 104.186920,176.062286 
	C125.681641,172.963791 143.263199,163.048523 157.186447,146.366196 
	C173.982162,126.242149 179.640228,103.236458 176.074554,77.508675 
	C173.406555,58.258072 164.824112,41.924519 150.940155,28.855595 
	C143.790771,22.125908 134.577209,17.589128 125.537292,11.916245 
z"/>
<path fill="#919AA2" opacity="1.000000" stroke="none" 
	d="
M125.916840,11.988843 
	C134.577209,17.589128 143.790771,22.125908 150.940155,28.855595 
	C164.824112,41.924519 173.406555,58.258072 176.074554,77.508675 
	C179.640228,103.236458 173.982162,126.242149 157.186447,146.366196 
	C143.263199,163.048523 125.681641,172.963791 104.186920,176.062286 
	C78.684357,179.738510 55.931377,173.793198 35.820969,157.412491 
	C20.012270,144.535675 10.174115,127.908669 6.412427,108.319740 
	C2.209917,86.435211 5.452611,65.403549 17.426876,45.862598 
	C30.632967,24.311407 49.847431,11.367437 73.947441,6.340203 
	C91.357239,2.708540 108.977806,4.172912 125.916840,11.988843 
M135.528839,61.020939 
	C134.832672,60.086411 134.154129,59.138161 133.437775,58.219376 
	C117.794128,38.154739 90.349045,31.959179 67.313309,43.287617 
	C44.806053,54.356159 33.026531,80.181831 39.330727,104.637230 
	C45.660561,129.192093 68.716415,146.143845 93.980438,144.818237 
	C135.422806,142.643753 158.097839,97.678482 135.528839,61.020939 
z"/>
<path fill="#FEFEFE" opacity="1.000000" stroke="none" 
	d="
M135.731171,61.322487 
	C158.097839,97.678482 135.422806,142.643753 93.980438,144.818237 
	C68.716415,146.143845 45.660561,129.192093 39.330727,104.637230 
	C33.026531,80.181831 44.806053,54.356159 67.313309,43.287617 
	C90.349045,31.959179 117.794128,38.154739 133.437775,58.219376 
	C134.154129,59.138161 134.832672,60.086411 135.731171,61.322487 
M110.910027,118.491730 
	C112.064400,117.537598 113.271271,116.639809 114.365097,115.620697 
	C126.340790,104.463158 128.477386,85.964081 119.392387,72.281235 
	C110.224068,58.472889 92.519791,53.328217 77.546043,60.121140 
	C59.589718,68.267128 52.229488,89.527908 61.377720,106.825020 
	C70.801117,124.642410 92.308609,129.955032 110.910027,118.491730 
z"/>
<path fill="#929BA3" opacity="1.000000" stroke="none" 
	d="
M110.609840,118.701782 
	C92.308609,129.955032 70.801117,124.642410 61.377720,106.825020 
	C52.229488,89.527908 59.589718,68.267128 77.546043,60.121140 
	C92.519791,53.328217 110.224068,58.472889 119.392387,72.281235 
	C128.477386,85.964081 126.340790,104.463158 114.365097,115.620697 
	C113.271271,116.639809 112.064400,117.537598 110.609840,118.701782 
z"/>
</svg>