<svg version="1.1" id="Layer_1" xmlns="http://www.w3.org/2000/svg" xmlns:xlink="http://www.w3.org/1999/xlink" x="0px" y="0px"
	 width="100%" viewBox="0 0 180 180" enable-background="new 0 0 180 180" xml:space="preserve">
<path fill="none" opacity="1.000000" stroke="none" 
	d="
M96.000000,181.000000 
	C64.021889,181.000000 32.543777,181.000000 1.032833,181.000000 
	C1.032833,121.063599 1.032833,61.127171 1.032833,1.095371 
	C60.894588,1.095371 120.789383,1.095371 180.842087,1.095371 
	C180.842087,60.999672 180.842087,120.999794 180.842087,181.000000 
	C152.794159,181.000000 124.647079,181.000000 96.000000,181.000000 
M120.542564,172.078049 
	C135.045609,166.680862 147.334534,158.356201 157.344727,146.306824 
	C175.133255,124.894623 180.485031,100.277374 175.595459,73.650833 
	C172.074112,54.475117 162.274551,38.287006 147.057220,25.434420 
	C125.545265,7.265376 100.728004,1.411325 73.712082,6.399924 
	C54.209831,10.001096 37.574505,19.868103 24.816341,35.633831 
	C4.973020,60.154942 0.037696,87.577461 8.963663,117.512543 
	C13.996701,134.391891 23.792059,148.313797 37.720867,159.159592 
	C50.606476,169.193069 65.316505,175.313034 81.491478,176.830521 
	C94.442642,178.045563 107.452965,177.111313 120.542564,172.078049 
z"/>
<path fill="#B568CE" opacity="1.000000" stroke="none" 
	d="
M120.229019,172.331558 
	C107.452965,177.111313 94.442642,178.045563 81.491478,176.830521 
	C65.316505,175.313034 50.606476,169.193069 37.720867,159.159592 
	C23.792059,148.313797 13.996701,134.391891 8.963663,117.512543 
	C0.037696,87.577461 4.973020,60.154942 24.816341,35.633831 
	C37.574505,19.868103 54.209831,10.001096 73.712082,6.399924 
	C100.728004,1.411325 125.545265,7.265376 147.057220,25.434420 
	C162.274551,38.287006 172.074112,54.475117 175.595459,73.650833 
	C180.485031,100.277374 175.133255,124.894623 157.344727,146.306824 
	C147.334534,158.356201 135.045609,166.680862 120.229019,172.331558 
M109.392387,37.970596 
	C89.076050,32.750076 69.927628,35.214405 52.813656,47.701084 
	C27.901329,65.877594 26.392576,97.012375 49.196899,117.709236 
	C51.612061,119.901199 51.766144,122.032715 51.929298,125.045578 
	C52.208279,130.197113 52.637691,135.892334 55.018284,140.261734 
	C59.766350,148.976425 69.768471,148.670807 75.260086,140.379242 
	C76.137024,139.055191 76.915886,137.666183 78.016098,135.852097 
	C81.113663,141.428467 84.504471,145.903214 91.039940,145.963608 
	C97.743210,146.025543 100.934830,141.011200 104.132957,135.966797 
	C109.520546,145.012817 113.649338,147.707336 119.421997,146.273834 
	C125.641693,144.729309 130.161270,138.052658 130.663177,129.612198 
	C130.722153,128.620468 130.846176,127.536423 130.534927,126.635071 
	C128.984985,122.146622 131.023788,119.417725 134.264450,116.384079 
	C154.642593,97.307686 153.780228,67.364197 131.918976,50.026535 
	C125.543541,44.970314 117.474998,42.048935 109.392387,37.970596 
z"/>
<path fill="#FDFCFE" opacity="1.000000" stroke="none" 
	d="
M109.787460,38.059799 
	C117.474998,42.048935 125.543541,44.970314 131.918976,50.026535 
	C153.780228,67.364197 154.642593,97.307686 134.264450,116.384079 
	C131.023788,119.417725 128.984985,122.146622 130.534927,126.635071 
	C130.846176,127.536423 130.722153,128.620468 130.663177,129.612198 
	C130.161270,138.052658 125.641693,144.729309 119.421997,146.273834 
	C113.649338,147.707336 109.520546,145.012817 104.132957,135.966797 
	C100.934830,141.011200 97.743210,146.025543 91.039940,145.963608 
	C84.504471,145.903214 81.113663,141.428467 78.016098,135.852097 
	C76.915886,137.666183 76.137024,139.055191 75.260086,140.379242 
	C69.768471,148.670807 59.766350,148.976425 55.018284,140.261734 
	C52.637691,135.892334 52.208279,130.197113 51.929298,125.045578 
	C51.766144,122.032715 51.612061,119.901199 49.196899,117.709236 
	C26.392576,97.012375 27.901329,65.877594 52.813656,47.701084 
	C69.927628,35.214405 89.076050,32.750076 109.787460,38.059799 
M81.071854,109.679749 
	C94.105713,112.125160 106.368546,110.517509 116.965141,102.013588 
	C128.978378,92.372803 129.040695,77.079857 117.387894,67.110542 
	C103.499527,55.228619 78.408211,55.249218 64.547554,67.153908 
	C52.983696,77.085915 53.038021,92.728928 65.231018,101.960571 
	C69.618301,105.282295 75.221947,106.997467 81.071854,109.679749 
z"/>
<path fill="#B668CE" opacity="1.000000" stroke="none" 
	d="
M80.671173,109.562775 
	C75.221947,106.997467 69.618301,105.282295 65.231018,101.960571 
	C53.038021,92.728928 52.983696,77.085915 64.547554,67.153908 
	C78.408211,55.249218 103.499527,55.228619 117.387894,67.110542 
	C129.040695,77.079857 128.978378,92.372803 116.965141,102.013588 
	C106.368546,110.517509 94.105713,112.125160 80.671173,109.562775 
z"/>
</svg>