<svg version="1.1" id="Layer_1" xmlns="http://www.w3.org/2000/svg" xmlns:xlink="http://www.w3.org/1999/xlink" x="0px" y="0px"
	 width="100%" viewBox="0 0 180 180" enable-background="new 0 0 180 180" xml:space="preserve">
<path fill="none" opacity="1.000000" stroke="none" 
	d="
M100.000000,181.000000 
	C66.666672,181.000000 33.833336,181.000000 1.000004,181.000000 
	C1.000003,121.000008 1.000003,61.000011 1.000001,1.000012 
	C60.999989,1.000008 120.999977,1.000008 180.999969,1.000004 
	C180.999985,60.999989 180.999985,120.999977 181.000000,180.999985 
	C154.166672,181.000000 127.333336,181.000000 100.000000,181.000000 
M7.990951,114.511063 
	C12.983981,131.483246 21.764675,145.911530 35.644840,157.222763 
	C60.019539,177.086197 87.459198,181.879288 117.116524,173.229263 
	C135.071075,167.992538 149.618362,157.317886 160.785110,141.880692 
	C175.807800,121.112923 180.237488,98.048042 175.536743,73.495712 
	C171.805145,54.005291 162.004944,37.468136 146.267700,24.682611 
	C126.077446,8.279305 103.288712,2.300501 77.628777,5.913450 
	C58.284943,8.637084 42.142773,17.494139 28.601398,31.080383 
	C20.027176,39.683018 13.842129,50.087597 9.806045,61.624176 
	C3.809331,78.764938 2.972229,96.121346 7.990951,114.511063 
z"/>
<path fill="#FF6776" opacity="1.000000" stroke="none" 
	d="
M7.957283,114.091782 
	C2.972229,96.121346 3.809331,78.764938 9.806045,61.624176 
	C13.842129,50.087597 20.027176,39.683018 28.601398,31.080383 
	C42.142773,17.494139 58.284943,8.637084 77.628777,5.913450 
	C103.288712,2.300501 126.077446,8.279305 146.267700,24.682611 
	C162.004944,37.468136 171.805145,54.005291 175.536743,73.495712 
	C180.237488,98.048042 175.807800,121.112923 160.785110,141.880692 
	C149.618362,157.317886 135.071075,167.992538 117.116524,173.229263 
	C87.459198,181.879288 60.019539,177.086197 35.644840,157.222763 
	C21.764675,145.911530 12.983981,131.483246 7.957283,114.091782 
M121.966255,79.073448 
	C123.002747,86.608269 122.169395,93.710754 117.137650,99.831245 
	C107.710930,111.297661 90.700630,110.854950 83.507980,98.960327 
	C78.067406,89.963142 82.786453,78.342972 92.637741,76.479233 
	C100.338623,75.022324 107.296616,81.002304 106.231033,88.226608 
	C105.571838,92.695755 102.748878,94.922173 98.365471,95.096313 
	C94.097504,95.265877 91.995193,92.890671 91.481880,88.800713 
	C91.355293,87.792152 90.912712,86.823265 90.516388,85.507385 
	C86.439880,90.682419 89.233261,97.730453 95.603394,99.761047 
	C103.935081,102.416931 113.434471,95.946144 114.103378,87.159225 
	C114.961906,75.881432 104.967285,66.428383 93.316032,67.607193 
	C82.902863,68.660744 75.246552,73.756844 72.219749,83.982422 
	C68.926132,95.109383 71.459129,105.201118 80.117714,113.172478 
	C90.836296,123.040321 107.057365,124.141937 120.048454,116.262245 
	C143.832626,101.836021 145.476242,66.866920 123.102631,49.380726 
	C111.080498,39.984776 97.375282,37.451641 82.521042,40.022861 
	C62.343014,43.515610 46.504326,58.116951 42.018230,77.443352 
	C36.858292,99.672714 43.710903,120.822266 61.069988,132.436127 
	C81.677681,146.223404 103.525131,146.246979 125.681175,135.943542 
	C126.336899,135.638596 126.838936,135.003143 127.412636,134.521774 
	C125.206161,134.327805 123.374672,134.942917 121.518005,135.469177 
	C104.091331,140.408630 87.476288,139.545059 72.737785,127.850334 
	C53.623665,112.683624 51.000042,83.716743 67.011993,67.052559 
	C84.345062,49.013443 114.291931,55.115757 121.966255,79.073448 
z"/>
<path fill="#FEFBFB" opacity="1.000000" stroke="none" 
	d="
M121.893234,78.647179 
	C114.291931,55.115757 84.345062,49.013443 67.011993,67.052559 
	C51.000042,83.716743 53.623665,112.683624 72.737785,127.850334 
	C87.476288,139.545059 104.091331,140.408630 121.518005,135.469177 
	C123.374672,134.942917 125.206161,134.327805 127.412636,134.521774 
	C126.838936,135.003143 126.336899,135.638596 125.681175,135.943542 
	C103.525131,146.246979 81.677681,146.223404 61.069988,132.436127 
	C43.710903,120.822266 36.858292,99.672714 42.018230,77.443352 
	C46.504326,58.116951 62.343014,43.515610 82.521042,40.022861 
	C97.375282,37.451641 111.080498,39.984776 123.102631,49.380726 
	C145.476242,66.866920 143.832626,101.836021 120.048454,116.262245 
	C107.057365,124.141937 90.836296,123.040321 80.117714,113.172478 
	C71.459129,105.201118 68.926132,95.109383 72.219749,83.982422 
	C75.246552,73.756844 82.902863,68.660744 93.316032,67.607193 
	C104.967285,66.428383 114.961906,75.881432 114.103378,87.159225 
	C113.434471,95.946144 103.935081,102.416931 95.603394,99.761047 
	C89.233261,97.730453 86.439880,90.682419 90.516388,85.507385 
	C90.912712,86.823265 91.355293,87.792152 91.481880,88.800713 
	C91.995193,92.890671 94.097504,95.265877 98.365471,95.096313 
	C102.748878,94.922173 105.571838,92.695755 106.231033,88.226608 
	C107.296616,81.002304 100.338623,75.022324 92.637741,76.479233 
	C82.786453,78.342972 78.067406,89.963142 83.507980,98.960327 
	C90.700630,110.854950 107.710930,111.297661 117.137650,99.831245 
	C122.169395,93.710754 123.002747,86.608269 121.893234,78.647179 
z"/>
</svg>