<svg version="1.1" id="Layer_1" xmlns="http://www.w3.org/2000/svg" xmlns:xlink="http://www.w3.org/1999/xlink" x="0px" y="0px"
	 width="100%" viewBox="0 0 180 180" enable-background="new 0 0 180 180" xml:space="preserve">
<path fill="none" opacity="1.000000" stroke="none" 
	d="
M102.000000,181.000000 
	C68.000000,181.000000 34.500004,181.000000 1.000005,181.000000 
	C1.000003,121.000008 1.000003,61.000011 1.000001,1.000013 
	C60.999989,1.000008 120.999977,1.000008 180.999969,1.000004 
	C180.999985,60.999985 180.999985,120.999969 181.000000,180.999969 
	C154.833328,181.000000 128.666672,181.000000 102.000000,181.000000 
M120.539734,172.076904 
	C138.435074,165.576523 152.704590,154.534637 163.156830,138.518570 
	C175.331970,119.862465 179.202164,99.595093 176.082443,77.657303 
	C172.833115,54.808010 161.737350,36.390797 143.795334,22.586226 
	C124.309654,7.593965 101.876396,2.096476 77.346321,5.972540 
	C56.223591,9.310199 38.744278,18.986427 25.033016,35.447906 
	C4.906138,59.611866 0.190131,87.161392 8.583949,116.795677 
	C13.432638,133.913925 23.479958,148.268967 37.793816,159.255692 
	C50.578197,169.068466 65.071289,175.235413 81.017494,176.813034 
	C94.116386,178.108978 107.296249,177.155441 120.539734,172.076904 
z"/>
<path fill="#C8B686" opacity="1.000000" stroke="none" 
	d="
M120.229836,172.335785 
	C107.296249,177.155441 94.116386,178.108978 81.017494,176.813034 
	C65.071289,175.235413 50.578197,169.068466 37.793816,159.255692 
	C23.479958,148.268967 13.432638,133.913925 8.583949,116.795677 
	C0.190131,87.161392 4.906138,59.611866 25.033016,35.447906 
	C38.744278,18.986427 56.223591,9.310199 77.346321,5.972540 
	C101.876396,2.096476 124.309654,7.593965 143.795334,22.586226 
	C161.737350,36.390797 172.833115,54.808010 176.082443,77.657303 
	C179.202164,99.595093 175.331970,119.862465 163.156830,138.518570 
	C152.704590,154.534637 138.435074,165.576523 120.229836,172.335785 
M61.500603,55.003056 
	C52.268108,66.154182 42.971855,77.253777 33.872616,88.512596 
	C32.524715,90.180397 31.480579,92.569000 31.375978,94.677704 
	C31.054804,101.152420 31.368303,107.655899 31.207586,114.142555 
	C31.137211,116.982895 32.282646,118.312378 34.921089,119.103050 
	C41.132420,120.964432 47.338867,122.884491 53.414253,125.139275 
	C56.461479,126.270203 58.693134,125.684052 61.231701,123.912956 
	C77.606903,112.488380 94.012207,101.104622 110.542831,89.907059 
	C114.103821,87.494896 116.045921,84.836426 116.576172,80.400131 
	C117.990623,68.566277 119.971199,56.800098 121.839020,44.252762 
	C119.390495,44.252762 117.610138,44.252766 115.829781,44.252758 
	C105.178459,44.252728 94.467781,44.949631 83.893173,44.048939 
	C74.089035,43.213875 66.754410,45.666210 61.500603,55.003056 
M129.748154,112.647446 
	C125.829712,106.739777 121.911278,100.832100 117.831017,94.680458 
	C101.219727,106.056755 85.215370,117.017395 68.436134,128.508713 
	C73.226982,130.140152 77.231522,130.944885 80.686218,132.783035 
	C91.919319,138.759842 101.403458,137.055923 110.561592,128.196655 
	C116.351875,122.595322 123.368210,118.261406 129.748154,112.647446 
M132.157928,100.339302 
	C134.026794,102.841476 135.895660,105.343658 137.998657,108.159302 
	C141.137955,105.784035 143.808899,103.568672 146.676346,101.646461 
	C149.743729,99.590225 150.481247,97.346573 149.262924,93.655945 
	C144.253937,78.482445 139.606277,63.189888 134.763840,47.960804 
	C134.324341,46.578678 133.442719,45.337135 132.766418,44.030304 
	C132.324295,44.109398 131.882172,44.188492 131.440048,44.267586 
	C131.001892,45.953426 130.442368,47.618244 130.146042,49.328659 
	C128.668716,57.855919 128.021286,66.615288 125.631607,74.873322 
	C122.776497,84.739708 124.589081,92.716454 132.157928,100.339302 
z"/>
<path fill="#FEFEFE" opacity="1.000000" stroke="none" 
	d="
M61.727234,54.728333 
	C66.754410,45.666210 74.089035,43.213875 83.893173,44.048939 
	C94.467781,44.949631 105.178459,44.252728 115.829781,44.252758 
	C117.610138,44.252766 119.390495,44.252762 121.839020,44.252762 
	C119.971199,56.800098 117.990623,68.566277 116.576172,80.400131 
	C116.045921,84.836426 114.103821,87.494896 110.542831,89.907059 
	C94.012207,101.104622 77.606903,112.488380 61.231701,123.912956 
	C58.693134,125.684052 56.461479,126.270203 53.414253,125.139275 
	C47.338867,122.884491 41.132420,120.964432 34.921089,119.103050 
	C32.282646,118.312378 31.137211,116.982895 31.207586,114.142555 
	C31.368303,107.655899 31.054804,101.152420 31.375978,94.677704 
	C31.480579,92.569000 32.524715,90.180397 33.872616,88.512596 
	C42.971855,77.253777 52.268108,66.154182 61.727234,54.728333 
z"/>
<path fill="#FEFEFD" opacity="1.000000" stroke="none" 
	d="
M129.791382,113.003235 
	C123.368210,118.261406 116.351875,122.595322 110.561592,128.196655 
	C101.403458,137.055923 91.919319,138.759842 80.686218,132.783035 
	C77.231522,130.944885 73.226982,130.140152 68.436134,128.508713 
	C85.215370,117.017395 101.219727,106.056755 117.831017,94.680458 
	C121.911278,100.832100 125.829712,106.739777 129.791382,113.003235 
z"/>
<path fill="#FEFEFD" opacity="1.000000" stroke="none" 
	d="
M131.954117,100.046295 
	C124.589081,92.716454 122.776497,84.739708 125.631607,74.873322 
	C128.021286,66.615288 128.668716,57.855919 130.146042,49.328659 
	C130.442368,47.618244 131.001892,45.953426 131.440048,44.267586 
	C131.882172,44.188492 132.324295,44.109398 132.766418,44.030304 
	C133.442719,45.337135 134.324341,46.578678 134.763840,47.960804 
	C139.606277,63.189888 144.253937,78.482445 149.262924,93.655945 
	C150.481247,97.346573 149.743729,99.590225 146.676346,101.646461 
	C143.808899,103.568672 141.137955,105.784035 137.998657,108.159302 
	C135.895660,105.343658 134.026794,102.841476 131.954117,100.046295 
z"/>
</svg>