<svg version="1.1" id="Layer_1" xmlns="http://www.w3.org/2000/svg" xmlns:xlink="http://www.w3.org/1999/xlink" x="0px" y="0px"
	 width="100%" viewBox="0 0 180 180" enable-background="new 0 0 180 180" xml:space="preserve">
<path fill="none" opacity="1.000000" stroke="none" 
	d="
M103.000000,181.000000 
	C68.666672,181.000000 34.833336,181.000000 1.000005,181.000000 
	C1.000003,121.000008 1.000003,61.000011 1.000002,1.000013 
	C60.999989,1.000008 120.999977,1.000008 180.999969,1.000004 
	C180.999985,60.999985 180.999985,120.999969 181.000000,180.999969 
	C155.166672,181.000000 129.333328,181.000000 103.000000,181.000000 
M68.317444,174.106812 
	C80.204948,177.818970 92.288361,177.847458 104.470863,176.034134 
	C125.784462,172.861664 143.360947,163.094818 157.105469,146.422699 
	C177.347763,121.868774 182.013657,94.145485 172.942917,64.179245 
	C166.723984,43.634258 153.902039,27.664564 135.236740,16.817287 
	C111.717186,3.148955 86.895203,1.013561 61.336605,10.014648 
	C42.114124,16.784317 27.173000,29.157581 16.777948,46.776844 
	C5.241259,66.331139 2.168612,87.334412 6.793553,109.436455 
	C10.977512,129.431076 21.190136,145.847275 37.146431,158.624359 
	C46.178413,165.856781 56.294518,171.014130 68.317444,174.106812 
z"/>
<path fill="#5A8EA2" opacity="1.000000" stroke="none" 
	d="
M67.902451,174.062469 
	C56.294518,171.014130 46.178413,165.856781 37.146431,158.624359 
	C21.190136,145.847275 10.977512,129.431076 6.793553,109.436455 
	C2.168612,87.334412 5.241259,66.331139 16.777948,46.776844 
	C27.173000,29.157581 42.114124,16.784317 61.336605,10.014648 
	C86.895203,1.013561 111.717186,3.148955 135.236740,16.817287 
	C153.902039,27.664564 166.723984,43.634258 172.942917,64.179245 
	C182.013657,94.145485 177.347763,121.868774 157.105469,146.422699 
	C143.360947,163.094818 125.784462,172.861664 104.470863,176.034134 
	C92.288361,177.847458 80.204948,177.818970 67.902451,174.062469 
M75.517845,40.320801 
	C73.019760,40.320808 70.482605,40.601513 68.031975,40.260490 
	C63.393848,39.615063 60.914597,41.644024 58.681282,45.619118 
	C50.857189,59.545269 42.712921,73.294312 34.505428,86.999947 
	C32.858681,89.749840 32.595512,91.818077 34.318874,94.687721 
	C42.885994,108.953255 51.303692,123.310631 59.578949,137.747482 
	C61.194527,140.565994 62.966499,141.683472 66.252235,141.651245 
	C82.904716,141.487885 99.560669,141.480316 116.212898,141.656204 
	C119.546516,141.691406 121.269829,140.455978 122.846390,137.680695 
	C130.983658,123.356354 139.236633,109.096031 147.629028,94.919800 
	C149.264755,92.156792 149.455490,90.073120 147.760559,87.215675 
	C139.271194,72.903542 130.926773,58.503063 122.739189,44.016209 
	C121.100647,41.117023 119.184700,40.215046 115.980675,40.254196 
	C102.825920,40.414932 89.668045,40.321045 75.517845,40.320801 
z"/>
<path fill="#FDFDFE" opacity="1.000000" stroke="none" 
	d="
M76.014587,40.320820 
	C89.668045,40.321045 102.825920,40.414932 115.980675,40.254196 
	C119.184700,40.215046 121.100647,41.117023 122.739189,44.016209 
	C130.926773,58.503063 139.271194,72.903542 147.760559,87.215675 
	C149.455490,90.073120 149.264755,92.156792 147.629028,94.919800 
	C139.236633,109.096031 130.983658,123.356354 122.846390,137.680695 
	C121.269829,140.455978 119.546516,141.691406 116.212898,141.656204 
	C99.560669,141.480316 82.904716,141.487885 66.252235,141.651245 
	C62.966499,141.683472 61.194527,140.565994 59.578949,137.747482 
	C51.303692,123.310631 42.885994,108.953255 34.318874,94.687721 
	C32.595512,91.818077 32.858681,89.749840 34.505428,86.999947 
	C42.712921,73.294312 50.857189,59.545269 58.681282,45.619118 
	C60.914597,41.644024 63.393848,39.615063 68.031975,40.260490 
	C70.482605,40.601513 73.019760,40.320808 76.014587,40.320820 
M115.887901,79.887833 
	C108.755722,66.284981 94.977501,60.462620 81.668053,65.427307 
	C68.711700,70.260292 61.350266,83.935211 64.593102,97.146484 
	C68.370255,112.534561 83.769920,121.448685 98.856377,116.979851 
	C114.180992,112.440483 121.728966,96.577339 115.887901,79.887833 
z"/>
<path fill="#5B8FA3" opacity="1.000000" stroke="none" 
	d="
M116.020996,80.257034 
	C121.728966,96.577339 114.180992,112.440483 98.856377,116.979851 
	C83.769920,121.448685 68.370255,112.534561 64.593102,97.146484 
	C61.350266,83.935211 68.711700,70.260292 81.668053,65.427307 
	C94.977501,60.462620 108.755722,66.284981 116.020996,80.257034 
z"/>
</svg>