<svg version="1.1" id="Layer_1" xmlns="http://www.w3.org/2000/svg" xmlns:xlink="http://www.w3.org/1999/xlink" x="0px" y="0px"
	 width="100%" viewBox="0 0 180 180" enable-background="new 0 0 180 180" xml:space="preserve">
<path fill="none" opacity="1.000000" stroke="none" 
	d="
M96.000000,181.000000 
	C64.021889,181.000000 32.543777,181.000000 1.032833,181.000000 
	C1.032833,121.063599 1.032833,61.127171 1.032833,1.095371 
	C60.894588,1.095371 120.789383,1.095371 180.842087,1.095371 
	C180.842087,60.999672 180.842087,120.999794 180.842087,181.000000 
	C152.794159,181.000000 124.647079,181.000000 96.000000,181.000000 
M92.461792,5.000329 
	C81.975479,4.250061 71.740471,5.955215 62.035549,9.594920 
	C43.153255,16.676479 28.031403,28.428736 17.329395,45.980141 
	C5.430330,65.494728 2.210417,86.494553 6.425564,108.357338 
	C10.192533,127.895561 19.937996,144.506424 35.729584,157.297028 
	C60.178787,177.099945 87.594673,181.900131 117.328346,173.125839 
	C135.390366,167.795776 149.929031,157.045120 161.062302,141.557404 
	C175.934509,120.868385 180.177124,97.874352 175.518021,73.423729 
	C171.884705,54.356293 162.232742,38.270119 147.144516,25.557579 
	C131.561478,12.428135 113.861305,5.271173 92.461792,5.000329 
z"/>
<path fill="#3692DC" opacity="1.000000" stroke="none" 
	d="
M92.950920,5.000329 
	C113.861305,5.271173 131.561478,12.428135 147.144516,25.557579 
	C162.232742,38.270119 171.884705,54.356293 175.518021,73.423729 
	C180.177124,97.874352 175.934509,120.868385 161.062302,141.557404 
	C149.929031,157.045120 135.390366,167.795776 117.328346,173.125839 
	C87.594673,181.900131 60.178787,177.099945 35.729584,157.297028 
	C19.937996,144.506424 10.192533,127.895561 6.425564,108.357338 
	C2.210417,86.494553 5.430330,65.494728 17.329395,45.980141 
	C28.031403,28.428736 43.153255,16.676479 62.035549,9.594920 
	C71.740471,5.955215 81.975479,4.250061 92.950920,5.000329 
M114.963043,64.537552 
	C107.111763,52.111591 99.260483,39.685635 90.703552,26.142868 
	C79.742676,44.560337 69.324059,61.765728 59.257736,79.174820 
	C56.445740,84.038002 54.383507,89.398346 52.477585,94.710121 
	C46.279869,111.983047 52.052238,130.868423 66.547539,141.543396 
	C81.135895,152.286896 101.248741,152.337448 115.508537,141.666473 
	C130.233414,130.647461 136.147018,111.639626 129.317566,94.385086 
	C125.353783,84.370644 120.029739,74.894592 114.963043,64.537552 
z"/>
<path fill="#FCFDFE" opacity="1.000000" stroke="none" 
	d="
M115.140427,64.856911 
	C120.029739,74.894592 125.353783,84.370644 129.317566,94.385086 
	C136.147018,111.639626 130.233414,130.647461 115.508537,141.666473 
	C101.248741,152.337448 81.135895,152.286896 66.547539,141.543396 
	C52.052238,130.868423 46.279869,111.983047 52.477585,94.710121 
	C54.383507,89.398346 56.445740,84.038002 59.257736,79.174820 
	C69.324059,61.765728 79.742676,44.560337 90.703552,26.142868 
	C99.260483,39.685635 107.111763,52.111591 115.140427,64.856911 
M66.402023,120.846466 
	C71.807846,133.904144 83.931747,139.805130 96.661194,135.574310 
	C106.460884,132.317230 113.369911,122.364380 111.137505,114.359749 
	C105.743416,123.480682 97.779312,127.724365 87.550774,125.728203 
	C75.764908,123.428123 70.552490,114.938103 69.598930,102.455391 
	C65.639229,108.636345 64.689774,114.143501 66.402023,120.846466 
z"/>
<path fill="#3D96DD" opacity="1.000000" stroke="none" 
	d="
M66.272888,120.470474 
	C64.689774,114.143501 65.639229,108.636345 69.598930,102.455391 
	C70.552490,114.938103 75.764908,123.428123 87.550774,125.728203 
	C97.779312,127.724365 105.743416,123.480682 111.137505,114.359749 
	C113.369911,122.364380 106.460884,132.317230 96.661194,135.574310 
	C83.931747,139.805130 71.807846,133.904144 66.272888,120.470474 
z"/>
</svg>